<mxfile host="app.diagrams.net" modified="2023-10-29T18:32:22.690Z" agent="Mozilla/5.0 (Windows NT 10.0; Win64; x64) AppleWebKit/537.36 (KHTML, like Gecko) Chrome/118.0.0.0 Safari/537.36" etag="HcQYNRa7i7-QbmBsgzEZ" version="22.0.8" type="device" pages="4">
  <diagram name="Page-1" id="OhLgDVO3v9A9TF7HzloA">
    <mxGraphModel dx="1434" dy="1590" grid="0" gridSize="10" guides="1" tooltips="1" connect="1" arrows="1" fold="1" page="0" pageScale="1" pageWidth="850" pageHeight="1100" math="0" shadow="0">
      <root>
        <mxCell id="0" />
        <mxCell id="1" parent="0" />
        <mxCell id="OdtDypHz-Wrd7XxHAZss-1" value="Musician" style="rounded=0;whiteSpace=wrap;html=1;" parent="1" vertex="1">
          <mxGeometry x="225" y="-658" width="117" height="57" as="geometry" />
        </mxCell>
        <mxCell id="OdtDypHz-Wrd7XxHAZss-2" value="address" style="ellipse;whiteSpace=wrap;html=1;" parent="1" vertex="1">
          <mxGeometry x="111" y="-599" width="64" height="51" as="geometry" />
        </mxCell>
        <mxCell id="OdtDypHz-Wrd7XxHAZss-3" value="&lt;u&gt;&lt;b&gt;ID&lt;/b&gt;&lt;/u&gt;" style="ellipse;whiteSpace=wrap;html=1;" parent="1" vertex="1">
          <mxGeometry x="241" y="-759" width="64" height="51" as="geometry" />
        </mxCell>
        <mxCell id="OdtDypHz-Wrd7XxHAZss-4" value="name" style="ellipse;whiteSpace=wrap;html=1;" parent="1" vertex="1">
          <mxGeometry x="103" y="-699" width="64" height="51" as="geometry" />
        </mxCell>
        <mxCell id="OdtDypHz-Wrd7XxHAZss-5" value="street" style="ellipse;whiteSpace=wrap;html=1;" parent="1" vertex="1">
          <mxGeometry x="9" y="-599" width="55" height="41" as="geometry" />
        </mxCell>
        <mxCell id="OdtDypHz-Wrd7XxHAZss-6" value="city" style="ellipse;whiteSpace=wrap;html=1;" parent="1" vertex="1">
          <mxGeometry x="43" y="-522" width="58" height="42" as="geometry" />
        </mxCell>
        <mxCell id="OdtDypHz-Wrd7XxHAZss-12" value="" style="endArrow=none;html=1;rounded=0;exitX=1;exitY=0;exitDx=0;exitDy=0;" parent="1" source="OdtDypHz-Wrd7XxHAZss-6" edge="1">
          <mxGeometry width="50" height="50" relative="1" as="geometry">
            <mxPoint x="94" y="-519" as="sourcePoint" />
            <mxPoint x="125" y="-552" as="targetPoint" />
          </mxGeometry>
        </mxCell>
        <mxCell id="OdtDypHz-Wrd7XxHAZss-15" value="" style="endArrow=none;html=1;rounded=0;exitX=1;exitY=0.5;exitDx=0;exitDy=0;entryX=0;entryY=0.5;entryDx=0;entryDy=0;" parent="1" source="OdtDypHz-Wrd7XxHAZss-5" target="OdtDypHz-Wrd7XxHAZss-2" edge="1">
          <mxGeometry width="50" height="50" relative="1" as="geometry">
            <mxPoint x="76" y="-565" as="sourcePoint" />
            <mxPoint x="126" y="-615" as="targetPoint" />
          </mxGeometry>
        </mxCell>
        <mxCell id="OdtDypHz-Wrd7XxHAZss-16" value="" style="endArrow=none;html=1;rounded=0;exitX=0;exitY=0.5;exitDx=0;exitDy=0;" parent="1" source="OdtDypHz-Wrd7XxHAZss-1" target="OdtDypHz-Wrd7XxHAZss-2" edge="1">
          <mxGeometry width="50" height="50" relative="1" as="geometry">
            <mxPoint x="676" y="-358" as="sourcePoint" />
            <mxPoint x="178" y="-583" as="targetPoint" />
          </mxGeometry>
        </mxCell>
        <mxCell id="OdtDypHz-Wrd7XxHAZss-18" value="" style="endArrow=none;html=1;rounded=0;entryX=0.5;entryY=1;entryDx=0;entryDy=0;exitX=0.5;exitY=0;exitDx=0;exitDy=0;" parent="1" source="OdtDypHz-Wrd7XxHAZss-1" target="OdtDypHz-Wrd7XxHAZss-3" edge="1">
          <mxGeometry width="50" height="50" relative="1" as="geometry">
            <mxPoint x="676" y="-358" as="sourcePoint" />
            <mxPoint x="726" y="-408" as="targetPoint" />
          </mxGeometry>
        </mxCell>
        <mxCell id="OdtDypHz-Wrd7XxHAZss-19" value="" style="endArrow=none;html=1;rounded=0;entryX=1;entryY=0.5;entryDx=0;entryDy=0;exitX=0;exitY=0;exitDx=0;exitDy=0;" parent="1" source="OdtDypHz-Wrd7XxHAZss-1" target="OdtDypHz-Wrd7XxHAZss-4" edge="1">
          <mxGeometry width="50" height="50" relative="1" as="geometry">
            <mxPoint x="686" y="-348" as="sourcePoint" />
            <mxPoint x="736" y="-398" as="targetPoint" />
          </mxGeometry>
        </mxCell>
        <mxCell id="OdtDypHz-Wrd7XxHAZss-22" value="phone" style="ellipse;whiteSpace=wrap;html=1;" parent="1" vertex="1">
          <mxGeometry x="214" y="-558" width="64" height="51" as="geometry" />
        </mxCell>
        <mxCell id="OdtDypHz-Wrd7XxHAZss-23" value="" style="endArrow=none;html=1;rounded=0;entryX=0.5;entryY=0;entryDx=0;entryDy=0;exitX=0.25;exitY=1;exitDx=0;exitDy=0;" parent="1" source="OdtDypHz-Wrd7XxHAZss-1" target="OdtDypHz-Wrd7XxHAZss-22" edge="1">
          <mxGeometry width="50" height="50" relative="1" as="geometry">
            <mxPoint x="235" y="-648" as="sourcePoint" />
            <mxPoint x="177" y="-663" as="targetPoint" />
          </mxGeometry>
        </mxCell>
        <mxCell id="OdtDypHz-Wrd7XxHAZss-24" value="instrument" style="rounded=0;whiteSpace=wrap;html=1;" parent="1" vertex="1">
          <mxGeometry x="366" y="-465" width="117" height="57" as="geometry" />
        </mxCell>
        <mxCell id="OdtDypHz-Wrd7XxHAZss-25" value="&lt;b&gt;&lt;u&gt;name&lt;/u&gt;&lt;/b&gt;" style="ellipse;whiteSpace=wrap;html=1;" parent="1" vertex="1">
          <mxGeometry x="270" y="-421" width="64" height="51" as="geometry" />
        </mxCell>
        <mxCell id="OdtDypHz-Wrd7XxHAZss-26" value="key" style="ellipse;whiteSpace=wrap;html=1;" parent="1" vertex="1">
          <mxGeometry x="392.5" y="-370" width="64" height="51" as="geometry" />
        </mxCell>
        <mxCell id="OdtDypHz-Wrd7XxHAZss-27" value="" style="endArrow=none;html=1;rounded=0;entryX=0.5;entryY=1;entryDx=0;entryDy=0;exitX=0.5;exitY=0;exitDx=0;exitDy=0;exitPerimeter=0;" parent="1" source="OdtDypHz-Wrd7XxHAZss-26" target="OdtDypHz-Wrd7XxHAZss-24" edge="1">
          <mxGeometry width="50" height="50" relative="1" as="geometry">
            <mxPoint x="424.5" y="-375.028" as="sourcePoint" />
            <mxPoint x="256" y="-548" as="targetPoint" />
          </mxGeometry>
        </mxCell>
        <mxCell id="OdtDypHz-Wrd7XxHAZss-28" value="" style="endArrow=none;html=1;rounded=0;entryX=0;entryY=0.5;entryDx=0;entryDy=0;exitX=1;exitY=0;exitDx=0;exitDy=0;" parent="1" source="OdtDypHz-Wrd7XxHAZss-25" target="OdtDypHz-Wrd7XxHAZss-24" edge="1">
          <mxGeometry width="50" height="50" relative="1" as="geometry">
            <mxPoint x="274" y="-581" as="sourcePoint" />
            <mxPoint x="266" y="-538" as="targetPoint" />
          </mxGeometry>
        </mxCell>
        <mxCell id="OdtDypHz-Wrd7XxHAZss-33" value="album" style="rounded=0;whiteSpace=wrap;html=1;" parent="1" vertex="1">
          <mxGeometry x="656" y="-461" width="117" height="57" as="geometry" />
        </mxCell>
        <mxCell id="OdtDypHz-Wrd7XxHAZss-35" value="&lt;b&gt;&lt;u&gt;title&lt;/u&gt;&lt;/b&gt;" style="ellipse;whiteSpace=wrap;html=1;" parent="1" vertex="1">
          <mxGeometry x="732" y="-368" width="64" height="51" as="geometry" />
        </mxCell>
        <mxCell id="OdtDypHz-Wrd7XxHAZss-36" value="copyright date" style="ellipse;whiteSpace=wrap;html=1;" parent="1" vertex="1">
          <mxGeometry x="595" y="-370" width="64" height="51" as="geometry" />
        </mxCell>
        <mxCell id="OdtDypHz-Wrd7XxHAZss-37" value="albumID" style="ellipse;whiteSpace=wrap;html=1;" parent="1" vertex="1">
          <mxGeometry x="878" y="-401" width="64" height="51" as="geometry" />
        </mxCell>
        <mxCell id="OdtDypHz-Wrd7XxHAZss-38" value="" style="endArrow=none;html=1;rounded=0;entryX=0;entryY=0;entryDx=0;entryDy=0;exitX=1;exitY=0.5;exitDx=0;exitDy=0;" parent="1" source="OdtDypHz-Wrd7XxHAZss-33" target="OdtDypHz-Wrd7XxHAZss-37" edge="1">
          <mxGeometry width="50" height="50" relative="1" as="geometry">
            <mxPoint x="386" y="-385" as="sourcePoint" />
            <mxPoint x="376" y="-426" as="targetPoint" />
          </mxGeometry>
        </mxCell>
        <mxCell id="OdtDypHz-Wrd7XxHAZss-39" value="" style="endArrow=none;html=1;rounded=0;entryX=0.5;entryY=1;entryDx=0;entryDy=0;exitX=0.5;exitY=0;exitDx=0;exitDy=0;" parent="1" source="OdtDypHz-Wrd7XxHAZss-35" target="OdtDypHz-Wrd7XxHAZss-33" edge="1">
          <mxGeometry width="50" height="50" relative="1" as="geometry">
            <mxPoint x="345" y="-393" as="sourcePoint" />
            <mxPoint x="386" y="-416" as="targetPoint" />
          </mxGeometry>
        </mxCell>
        <mxCell id="OdtDypHz-Wrd7XxHAZss-40" value="" style="endArrow=none;html=1;rounded=0;entryX=0;entryY=1;entryDx=0;entryDy=0;exitX=0.5;exitY=0;exitDx=0;exitDy=0;" parent="1" source="OdtDypHz-Wrd7XxHAZss-36" target="OdtDypHz-Wrd7XxHAZss-33" edge="1">
          <mxGeometry width="50" height="50" relative="1" as="geometry">
            <mxPoint x="355" y="-383" as="sourcePoint" />
            <mxPoint x="396" y="-406" as="targetPoint" />
          </mxGeometry>
        </mxCell>
        <mxCell id="OdtDypHz-Wrd7XxHAZss-42" value="song" style="rounded=0;whiteSpace=wrap;html=1;" parent="1" vertex="1">
          <mxGeometry x="990" y="-593.25" width="117" height="57" as="geometry" />
        </mxCell>
        <mxCell id="OdtDypHz-Wrd7XxHAZss-43" value="&lt;b&gt;&lt;u&gt;title&lt;/u&gt;&lt;/b&gt;" style="ellipse;whiteSpace=wrap;html=1;" parent="1" vertex="1">
          <mxGeometry x="1019" y="-492" width="64" height="51" as="geometry" />
        </mxCell>
        <mxCell id="OdtDypHz-Wrd7XxHAZss-44" value="author" style="ellipse;whiteSpace=wrap;html=1;" parent="1" vertex="1">
          <mxGeometry x="1154" y="-536.25" width="64" height="51" as="geometry" />
        </mxCell>
        <mxCell id="OdtDypHz-Wrd7XxHAZss-45" value="" style="endArrow=none;html=1;rounded=0;entryX=1;entryY=0.5;entryDx=0;entryDy=0;exitX=0;exitY=0;exitDx=0;exitDy=0;" parent="1" source="OdtDypHz-Wrd7XxHAZss-44" target="OdtDypHz-Wrd7XxHAZss-42" edge="1">
          <mxGeometry width="50" height="50" relative="1" as="geometry">
            <mxPoint x="774" y="-358" as="sourcePoint" />
            <mxPoint x="725" y="-394" as="targetPoint" />
          </mxGeometry>
        </mxCell>
        <mxCell id="OdtDypHz-Wrd7XxHAZss-46" value="" style="endArrow=none;html=1;rounded=0;entryX=0.5;entryY=0;entryDx=0;entryDy=0;exitX=0.5;exitY=1;exitDx=0;exitDy=0;" parent="1" source="OdtDypHz-Wrd7XxHAZss-42" target="OdtDypHz-Wrd7XxHAZss-43" edge="1">
          <mxGeometry width="50" height="50" relative="1" as="geometry">
            <mxPoint x="784" y="-348" as="sourcePoint" />
            <mxPoint x="735" y="-384" as="targetPoint" />
          </mxGeometry>
        </mxCell>
        <mxCell id="OdtDypHz-Wrd7XxHAZss-47" value="play" style="rhombus;whiteSpace=wrap;html=1;" parent="1" vertex="1">
          <mxGeometry x="352" y="-562.5" width="70.5" height="70.5" as="geometry" />
        </mxCell>
        <mxCell id="OdtDypHz-Wrd7XxHAZss-48" value="" style="endArrow=none;html=1;rounded=0;entryX=0.75;entryY=1;entryDx=0;entryDy=0;exitX=0.5;exitY=0;exitDx=0;exitDy=0;" parent="1" source="OdtDypHz-Wrd7XxHAZss-47" target="OdtDypHz-Wrd7XxHAZss-1" edge="1">
          <mxGeometry width="50" height="50" relative="1" as="geometry">
            <mxPoint x="347" y="-569" as="sourcePoint" />
            <mxPoint x="397" y="-619" as="targetPoint" />
          </mxGeometry>
        </mxCell>
        <mxCell id="OdtDypHz-Wrd7XxHAZss-50" value="" style="endArrow=none;html=1;rounded=0;entryX=0.5;entryY=1;entryDx=0;entryDy=0;exitX=0.5;exitY=0;exitDx=0;exitDy=0;" parent="1" source="OdtDypHz-Wrd7XxHAZss-24" target="OdtDypHz-Wrd7XxHAZss-47" edge="1">
          <mxGeometry width="50" height="50" relative="1" as="geometry">
            <mxPoint x="426" y="-567" as="sourcePoint" />
            <mxPoint x="323" y="-591" as="targetPoint" />
          </mxGeometry>
        </mxCell>
        <mxCell id="OdtDypHz-Wrd7XxHAZss-51" value="perform" style="rhombus;whiteSpace=wrap;html=1;" parent="1" vertex="1">
          <mxGeometry x="611" y="-658" width="70.5" height="70.5" as="geometry" />
        </mxCell>
        <mxCell id="OdtDypHz-Wrd7XxHAZss-52" value="has" style="rhombus;whiteSpace=wrap;html=1;" parent="1" vertex="1">
          <mxGeometry x="840" y="-536.25" width="70.5" height="70.5" as="geometry" />
        </mxCell>
        <mxCell id="OdtDypHz-Wrd7XxHAZss-53" value="" style="endArrow=none;html=1;rounded=0;entryX=0;entryY=0.5;entryDx=0;entryDy=0;exitX=1;exitY=0.5;exitDx=0;exitDy=0;" parent="1" source="OdtDypHz-Wrd7XxHAZss-52" target="OdtDypHz-Wrd7XxHAZss-42" edge="1">
          <mxGeometry width="50" height="50" relative="1" as="geometry">
            <mxPoint x="435" y="-455" as="sourcePoint" />
            <mxPoint x="426" y="-497" as="targetPoint" />
          </mxGeometry>
        </mxCell>
        <mxCell id="OdtDypHz-Wrd7XxHAZss-54" value="" style="endArrow=none;html=1;rounded=0;entryX=0;entryY=0.514;entryDx=0;entryDy=0;exitX=0.5;exitY=0;exitDx=0;exitDy=0;entryPerimeter=0;" parent="1" source="OdtDypHz-Wrd7XxHAZss-33" target="OdtDypHz-Wrd7XxHAZss-52" edge="1">
          <mxGeometry width="50" height="50" relative="1" as="geometry">
            <mxPoint x="445" y="-445" as="sourcePoint" />
            <mxPoint x="436" y="-487" as="targetPoint" />
          </mxGeometry>
        </mxCell>
        <mxCell id="OdtDypHz-Wrd7XxHAZss-55" value="" style="endArrow=none;html=1;rounded=0;entryX=1;entryY=0.5;entryDx=0;entryDy=0;exitX=0;exitY=0.5;exitDx=0;exitDy=0;" parent="1" source="OdtDypHz-Wrd7XxHAZss-51" target="OdtDypHz-Wrd7XxHAZss-1" edge="1">
          <mxGeometry width="50" height="50" relative="1" as="geometry">
            <mxPoint x="426" y="-567" as="sourcePoint" />
            <mxPoint x="323" y="-591" as="targetPoint" />
          </mxGeometry>
        </mxCell>
        <mxCell id="OdtDypHz-Wrd7XxHAZss-56" value="" style="endArrow=none;html=1;rounded=0;entryX=0;entryY=0.25;entryDx=0;entryDy=0;exitX=1;exitY=0.5;exitDx=0;exitDy=0;" parent="1" source="OdtDypHz-Wrd7XxHAZss-51" target="OdtDypHz-Wrd7XxHAZss-42" edge="1">
          <mxGeometry width="50" height="50" relative="1" as="geometry">
            <mxPoint x="621" y="-613" as="sourcePoint" />
            <mxPoint x="352" y="-619" as="targetPoint" />
          </mxGeometry>
        </mxCell>
        <mxCell id="OdtDypHz-Wrd7XxHAZss-57" value="produce" style="rhombus;whiteSpace=wrap;html=1;" parent="1" vertex="1">
          <mxGeometry x="524.5" y="-570" width="70.5" height="70.5" as="geometry" />
        </mxCell>
        <mxCell id="OdtDypHz-Wrd7XxHAZss-58" value="" style="endArrow=none;html=1;rounded=0;entryX=0.25;entryY=0;entryDx=0;entryDy=0;exitX=0.5;exitY=1;exitDx=0;exitDy=0;" parent="1" source="OdtDypHz-Wrd7XxHAZss-57" target="OdtDypHz-Wrd7XxHAZss-33" edge="1">
          <mxGeometry width="50" height="50" relative="1" as="geometry">
            <mxPoint x="621" y="-613" as="sourcePoint" />
            <mxPoint x="352" y="-619" as="targetPoint" />
          </mxGeometry>
        </mxCell>
        <mxCell id="OdtDypHz-Wrd7XxHAZss-59" value="" style="endArrow=none;html=1;rounded=0;entryX=1.017;entryY=0.895;entryDx=0;entryDy=0;exitX=0.5;exitY=0;exitDx=0;exitDy=0;entryPerimeter=0;" parent="1" source="OdtDypHz-Wrd7XxHAZss-57" target="OdtDypHz-Wrd7XxHAZss-1" edge="1">
          <mxGeometry width="50" height="50" relative="1" as="geometry">
            <mxPoint x="631" y="-603" as="sourcePoint" />
            <mxPoint x="362" y="-609" as="targetPoint" />
          </mxGeometry>
        </mxCell>
        <mxCell id="OdtDypHz-Wrd7XxHAZss-61" value="M" style="text;html=1;align=center;verticalAlign=middle;resizable=0;points=[];autosize=1;strokeColor=none;fillColor=none;" parent="1" vertex="1">
          <mxGeometry x="281" y="-596" width="28" height="26" as="geometry" />
        </mxCell>
        <mxCell id="OdtDypHz-Wrd7XxHAZss-62" value="M" style="text;html=1;align=center;verticalAlign=middle;resizable=0;points=[];autosize=1;strokeColor=none;fillColor=none;" parent="1" vertex="1">
          <mxGeometry x="417" y="-487" width="28" height="26" as="geometry" />
        </mxCell>
        <mxCell id="OdtDypHz-Wrd7XxHAZss-63" value="M" style="text;html=1;align=center;verticalAlign=middle;resizable=0;points=[];autosize=1;strokeColor=none;fillColor=none;" parent="1" vertex="1">
          <mxGeometry x="967" y="-555" width="28" height="26" as="geometry" />
        </mxCell>
        <mxCell id="OdtDypHz-Wrd7XxHAZss-64" value="1" style="text;html=1;align=center;verticalAlign=middle;resizable=0;points=[];autosize=1;strokeColor=none;fillColor=none;" parent="1" vertex="1">
          <mxGeometry x="720" y="-487" width="25" height="26" as="geometry" />
        </mxCell>
        <mxCell id="OdtDypHz-Wrd7XxHAZss-65" value="M" style="text;html=1;align=center;verticalAlign=middle;resizable=0;points=[];autosize=1;strokeColor=none;fillColor=none;" parent="1" vertex="1">
          <mxGeometry x="349" y="-652" width="28" height="26" as="geometry" />
        </mxCell>
        <mxCell id="OdtDypHz-Wrd7XxHAZss-66" value="M" style="text;html=1;align=center;verticalAlign=middle;resizable=0;points=[];autosize=1;strokeColor=none;fillColor=none;" parent="1" vertex="1">
          <mxGeometry x="962" y="-606" width="28" height="26" as="geometry" />
        </mxCell>
        <mxCell id="OdtDypHz-Wrd7XxHAZss-67" value="1" style="text;html=1;align=center;verticalAlign=middle;resizable=0;points=[];autosize=1;strokeColor=none;fillColor=none;" parent="1" vertex="1">
          <mxGeometry x="347" y="-626" width="25" height="26" as="geometry" />
        </mxCell>
        <mxCell id="OdtDypHz-Wrd7XxHAZss-70" value="M" style="text;html=1;align=center;verticalAlign=middle;resizable=0;points=[];autosize=1;strokeColor=none;fillColor=none;" parent="1" vertex="1">
          <mxGeometry x="669" y="-487" width="28" height="26" as="geometry" />
        </mxCell>
        <mxCell id="i0aTxx2PD_yijYIG72ki-1" value="" style="endArrow=none;html=1;rounded=0;exitX=0.44;exitY=0.021;exitDx=0;exitDy=0;exitPerimeter=0;" parent="1" source="OdtDypHz-Wrd7XxHAZss-47" edge="1">
          <mxGeometry width="50" height="50" relative="1" as="geometry">
            <mxPoint x="381" y="-559" as="sourcePoint" />
            <mxPoint x="307" y="-600" as="targetPoint" />
          </mxGeometry>
        </mxCell>
        <mxCell id="i0aTxx2PD_yijYIG72ki-2" value="" style="endArrow=none;html=1;rounded=0;entryX=0.979;entryY=0.596;entryDx=0;entryDy=0;exitX=0;exitY=0.5;exitDx=0;exitDy=0;entryPerimeter=0;" parent="1" target="OdtDypHz-Wrd7XxHAZss-51" edge="1">
          <mxGeometry width="50" height="50" relative="1" as="geometry">
            <mxPoint x="989" y="-574" as="sourcePoint" />
            <mxPoint x="720" y="-580" as="targetPoint" />
          </mxGeometry>
        </mxCell>
        <mxCell id="i0aTxx2PD_yijYIG72ki-3" value="" style="endArrow=none;html=1;rounded=0;entryX=0.5;entryY=1;entryDx=0;entryDy=0;exitX=0.5;exitY=0;exitDx=0;exitDy=0;" parent="1" edge="1">
          <mxGeometry width="50" height="50" relative="1" as="geometry">
            <mxPoint x="428" y="-465.75" as="sourcePoint" />
            <mxPoint x="390" y="-492.75" as="targetPoint" />
          </mxGeometry>
        </mxCell>
        <mxCell id="i0aTxx2PD_yijYIG72ki-4" value="" style="endArrow=none;html=1;rounded=0;exitX=0.5;exitY=0;exitDx=0;exitDy=0;" parent="1" edge="1">
          <mxGeometry width="50" height="50" relative="1" as="geometry">
            <mxPoint x="725" y="-460.5" as="sourcePoint" />
            <mxPoint x="843" y="-497" as="targetPoint" />
          </mxGeometry>
        </mxCell>
        <mxCell id="i0aTxx2PD_yijYIG72ki-5" value="" style="endArrow=none;html=1;rounded=0;" parent="1" edge="1">
          <mxGeometry width="50" height="50" relative="1" as="geometry">
            <mxPoint x="555" y="-568" as="sourcePoint" />
            <mxPoint x="346" y="-603" as="targetPoint" />
          </mxGeometry>
        </mxCell>
      </root>
    </mxGraphModel>
  </diagram>
  <diagram id="J0VsWNxpISkaog4mxX2M" name="Page-2">
    <mxGraphModel dx="1867" dy="1597" grid="0" gridSize="10" guides="1" tooltips="1" connect="1" arrows="1" fold="1" page="0" pageScale="1" pageWidth="850" pageHeight="1100" math="0" shadow="0">
      <root>
        <mxCell id="0" />
        <mxCell id="1" parent="0" />
        <mxCell id="1GG1aFj6YszDzGrMVSn9-1" value="Employee" style="rounded=0;whiteSpace=wrap;html=1;" vertex="1" parent="1">
          <mxGeometry x="-11" y="-454" width="117" height="57" as="geometry" />
        </mxCell>
        <mxCell id="1GG1aFj6YszDzGrMVSn9-2" value="address" style="ellipse;whiteSpace=wrap;html=1;" vertex="1" parent="1">
          <mxGeometry x="-125" y="-395" width="64" height="51" as="geometry" />
        </mxCell>
        <mxCell id="1GG1aFj6YszDzGrMVSn9-3" value="&lt;u&gt;&lt;b&gt;Emp ID&lt;/b&gt;&lt;/u&gt;" style="ellipse;whiteSpace=wrap;html=1;" vertex="1" parent="1">
          <mxGeometry x="5" y="-555" width="64" height="51" as="geometry" />
        </mxCell>
        <mxCell id="1GG1aFj6YszDzGrMVSn9-4" value="Emp_Name" style="ellipse;whiteSpace=wrap;html=1;" vertex="1" parent="1">
          <mxGeometry x="-141" y="-495" width="72" height="54" as="geometry" />
        </mxCell>
        <mxCell id="1GG1aFj6YszDzGrMVSn9-5" value="street" style="ellipse;whiteSpace=wrap;html=1;" vertex="1" parent="1">
          <mxGeometry x="-227" y="-395" width="55" height="41" as="geometry" />
        </mxCell>
        <mxCell id="1GG1aFj6YszDzGrMVSn9-6" value="city" style="ellipse;whiteSpace=wrap;html=1;" vertex="1" parent="1">
          <mxGeometry x="-193" y="-318" width="58" height="42" as="geometry" />
        </mxCell>
        <mxCell id="1GG1aFj6YszDzGrMVSn9-7" value="" style="endArrow=none;html=1;rounded=0;exitX=1;exitY=0;exitDx=0;exitDy=0;" edge="1" parent="1" source="1GG1aFj6YszDzGrMVSn9-6">
          <mxGeometry width="50" height="50" relative="1" as="geometry">
            <mxPoint x="-142" y="-315" as="sourcePoint" />
            <mxPoint x="-111" y="-348" as="targetPoint" />
          </mxGeometry>
        </mxCell>
        <mxCell id="1GG1aFj6YszDzGrMVSn9-8" value="" style="endArrow=none;html=1;rounded=0;exitX=1;exitY=0.5;exitDx=0;exitDy=0;entryX=0;entryY=0.5;entryDx=0;entryDy=0;" edge="1" parent="1" source="1GG1aFj6YszDzGrMVSn9-5" target="1GG1aFj6YszDzGrMVSn9-2">
          <mxGeometry width="50" height="50" relative="1" as="geometry">
            <mxPoint x="-160" y="-361" as="sourcePoint" />
            <mxPoint x="-110" y="-411" as="targetPoint" />
          </mxGeometry>
        </mxCell>
        <mxCell id="1GG1aFj6YszDzGrMVSn9-9" value="" style="endArrow=none;html=1;rounded=0;exitX=0;exitY=0.5;exitDx=0;exitDy=0;" edge="1" parent="1" source="1GG1aFj6YszDzGrMVSn9-1" target="1GG1aFj6YszDzGrMVSn9-2">
          <mxGeometry width="50" height="50" relative="1" as="geometry">
            <mxPoint x="440" y="-154" as="sourcePoint" />
            <mxPoint x="-58" y="-379" as="targetPoint" />
          </mxGeometry>
        </mxCell>
        <mxCell id="1GG1aFj6YszDzGrMVSn9-10" value="" style="endArrow=none;html=1;rounded=0;entryX=0.5;entryY=1;entryDx=0;entryDy=0;exitX=0.5;exitY=0;exitDx=0;exitDy=0;" edge="1" parent="1" source="1GG1aFj6YszDzGrMVSn9-1" target="1GG1aFj6YszDzGrMVSn9-3">
          <mxGeometry width="50" height="50" relative="1" as="geometry">
            <mxPoint x="440" y="-154" as="sourcePoint" />
            <mxPoint x="490" y="-204" as="targetPoint" />
          </mxGeometry>
        </mxCell>
        <mxCell id="1GG1aFj6YszDzGrMVSn9-11" value="" style="endArrow=none;html=1;rounded=0;entryX=1;entryY=0.5;entryDx=0;entryDy=0;exitX=0;exitY=0;exitDx=0;exitDy=0;" edge="1" parent="1" source="1GG1aFj6YszDzGrMVSn9-1" target="1GG1aFj6YszDzGrMVSn9-4">
          <mxGeometry width="50" height="50" relative="1" as="geometry">
            <mxPoint x="450" y="-144" as="sourcePoint" />
            <mxPoint x="500" y="-194" as="targetPoint" />
          </mxGeometry>
        </mxCell>
        <mxCell id="1GG1aFj6YszDzGrMVSn9-12" value="phone" style="ellipse;whiteSpace=wrap;html=1;" vertex="1" parent="1">
          <mxGeometry x="-22" y="-354" width="64" height="51" as="geometry" />
        </mxCell>
        <mxCell id="1GG1aFj6YszDzGrMVSn9-13" value="" style="endArrow=none;html=1;rounded=0;entryX=0.5;entryY=0;entryDx=0;entryDy=0;exitX=0.25;exitY=1;exitDx=0;exitDy=0;" edge="1" parent="1" source="1GG1aFj6YszDzGrMVSn9-1" target="1GG1aFj6YszDzGrMVSn9-12">
          <mxGeometry width="50" height="50" relative="1" as="geometry">
            <mxPoint x="-1" y="-444" as="sourcePoint" />
            <mxPoint x="-59" y="-459" as="targetPoint" />
          </mxGeometry>
        </mxCell>
        <mxCell id="1GG1aFj6YszDzGrMVSn9-15" value="sales office" style="rounded=0;whiteSpace=wrap;html=1;" vertex="1" parent="1">
          <mxGeometry x="317" y="-621" width="117" height="57" as="geometry" />
        </mxCell>
        <mxCell id="1GG1aFj6YszDzGrMVSn9-16" value="&lt;u&gt;&lt;b&gt;Office number&lt;/b&gt;&lt;/u&gt;" style="ellipse;whiteSpace=wrap;html=1;" vertex="1" parent="1">
          <mxGeometry x="310" y="-728" width="91" height="49" as="geometry" />
        </mxCell>
        <mxCell id="1GG1aFj6YszDzGrMVSn9-17" value="location" style="ellipse;whiteSpace=wrap;html=1;" vertex="1" parent="1">
          <mxGeometry x="191" y="-682" width="64" height="51" as="geometry" />
        </mxCell>
        <mxCell id="1GG1aFj6YszDzGrMVSn9-19" value="" style="endArrow=none;html=1;rounded=0;entryX=0.5;entryY=1;entryDx=0;entryDy=0;exitX=0.5;exitY=0;exitDx=0;exitDy=0;" edge="1" source="1GG1aFj6YszDzGrMVSn9-15" parent="1">
          <mxGeometry width="50" height="50" relative="1" as="geometry">
            <mxPoint x="762" y="-328" as="sourcePoint" />
            <mxPoint x="359" y="-678" as="targetPoint" />
          </mxGeometry>
        </mxCell>
        <mxCell id="1GG1aFj6YszDzGrMVSn9-20" value="" style="endArrow=none;html=1;rounded=0;entryX=1;entryY=0.5;entryDx=0;entryDy=0;exitX=0;exitY=0;exitDx=0;exitDy=0;" edge="1" source="1GG1aFj6YszDzGrMVSn9-15" parent="1">
          <mxGeometry width="50" height="50" relative="1" as="geometry">
            <mxPoint x="772" y="-318" as="sourcePoint" />
            <mxPoint x="253" y="-643.5" as="targetPoint" />
          </mxGeometry>
        </mxCell>
        <mxCell id="JA0oD-zrqq-BoqH9n1Ey-1" value="work" style="rhombus;whiteSpace=wrap;html=1;" vertex="1" parent="1">
          <mxGeometry x="158" y="-578" width="70.5" height="70.5" as="geometry" />
        </mxCell>
        <mxCell id="JA0oD-zrqq-BoqH9n1Ey-2" value="" style="endArrow=none;html=1;rounded=0;entryX=0.75;entryY=0;entryDx=0;entryDy=0;exitX=0.5;exitY=1;exitDx=0;exitDy=0;" edge="1" parent="1" source="JA0oD-zrqq-BoqH9n1Ey-1" target="1GG1aFj6YszDzGrMVSn9-1">
          <mxGeometry width="50" height="50" relative="1" as="geometry">
            <mxPoint x="327" y="-611" as="sourcePoint" />
            <mxPoint x="263" y="-633.5" as="targetPoint" />
          </mxGeometry>
        </mxCell>
        <mxCell id="JA0oD-zrqq-BoqH9n1Ey-3" value="" style="endArrow=none;html=1;rounded=0;entryX=0.482;entryY=0;entryDx=0;entryDy=0;exitX=0;exitY=0.5;exitDx=0;exitDy=0;entryPerimeter=0;" edge="1" parent="1" source="1GG1aFj6YszDzGrMVSn9-15" target="JA0oD-zrqq-BoqH9n1Ey-1">
          <mxGeometry width="50" height="50" relative="1" as="geometry">
            <mxPoint x="337" y="-601" as="sourcePoint" />
            <mxPoint x="273" y="-623.5" as="targetPoint" />
          </mxGeometry>
        </mxCell>
        <mxCell id="dq7DtR-c5X4emgKb2MAW-1" value="M" style="text;html=1;align=center;verticalAlign=middle;resizable=0;points=[];autosize=1;strokeColor=none;fillColor=none;" vertex="1" parent="1">
          <mxGeometry x="65" y="-481" width="28" height="26" as="geometry" />
        </mxCell>
        <mxCell id="dq7DtR-c5X4emgKb2MAW-2" value="1" style="text;html=1;align=center;verticalAlign=middle;resizable=0;points=[];autosize=1;strokeColor=none;fillColor=none;" vertex="1" parent="1">
          <mxGeometry x="291" y="-611" width="25" height="26" as="geometry" />
        </mxCell>
        <mxCell id="dq7DtR-c5X4emgKb2MAW-10" value="manage" style="rhombus;whiteSpace=wrap;html=1;" vertex="1" parent="1">
          <mxGeometry x="255" y="-487" width="70.5" height="70.5" as="geometry" />
        </mxCell>
        <mxCell id="dq7DtR-c5X4emgKb2MAW-11" value="" style="endArrow=none;html=1;rounded=0;entryX=0.5;entryY=0;entryDx=0;entryDy=0;exitX=0.5;exitY=1;exitDx=0;exitDy=0;" edge="1" parent="1" source="1GG1aFj6YszDzGrMVSn9-15" target="dq7DtR-c5X4emgKb2MAW-10">
          <mxGeometry width="50" height="50" relative="1" as="geometry">
            <mxPoint x="203" y="-497" as="sourcePoint" />
            <mxPoint x="87" y="-444" as="targetPoint" />
          </mxGeometry>
        </mxCell>
        <mxCell id="dq7DtR-c5X4emgKb2MAW-12" value="" style="endArrow=none;html=1;rounded=0;entryX=1;entryY=0.404;entryDx=0;entryDy=0;exitX=0.5;exitY=1;exitDx=0;exitDy=0;entryPerimeter=0;" edge="1" parent="1" source="dq7DtR-c5X4emgKb2MAW-10" target="1GG1aFj6YszDzGrMVSn9-1">
          <mxGeometry width="50" height="50" relative="1" as="geometry">
            <mxPoint x="213" y="-487" as="sourcePoint" />
            <mxPoint x="97" y="-434" as="targetPoint" />
          </mxGeometry>
        </mxCell>
        <mxCell id="dq7DtR-c5X4emgKb2MAW-13" value="1" style="text;html=1;align=center;verticalAlign=middle;resizable=0;points=[];autosize=1;strokeColor=none;fillColor=none;" vertex="1" parent="1">
          <mxGeometry x="104" y="-435" width="25" height="26" as="geometry" />
        </mxCell>
        <mxCell id="dq7DtR-c5X4emgKb2MAW-14" value="1" style="text;html=1;align=center;verticalAlign=middle;resizable=0;points=[];autosize=1;strokeColor=none;fillColor=none;" vertex="1" parent="1">
          <mxGeometry x="335" y="-568" width="25" height="26" as="geometry" />
        </mxCell>
        <mxCell id="bgBxIiEgbgFTtYUzO9Qt-2" value="Property" style="rounded=0;whiteSpace=wrap;html=1;" vertex="1" parent="1">
          <mxGeometry x="415" y="-309" width="117" height="57" as="geometry" />
        </mxCell>
        <mxCell id="bgBxIiEgbgFTtYUzO9Qt-3" value="location" style="ellipse;whiteSpace=wrap;html=1;" vertex="1" parent="1">
          <mxGeometry x="379" y="-178" width="64" height="51" as="geometry" />
        </mxCell>
        <mxCell id="bgBxIiEgbgFTtYUzO9Qt-4" value="street" style="ellipse;whiteSpace=wrap;html=1;" vertex="1" parent="1">
          <mxGeometry x="289" y="-178" width="55" height="41" as="geometry" />
        </mxCell>
        <mxCell id="bgBxIiEgbgFTtYUzO9Qt-5" value="state" style="ellipse;whiteSpace=wrap;html=1;" vertex="1" parent="1">
          <mxGeometry x="323" y="-101" width="58" height="42" as="geometry" />
        </mxCell>
        <mxCell id="bgBxIiEgbgFTtYUzO9Qt-6" value="" style="endArrow=none;html=1;rounded=0;exitX=1;exitY=0;exitDx=0;exitDy=0;" edge="1" source="bgBxIiEgbgFTtYUzO9Qt-5" parent="1">
          <mxGeometry width="50" height="50" relative="1" as="geometry">
            <mxPoint x="374" y="-98" as="sourcePoint" />
            <mxPoint x="400" y="-128" as="targetPoint" />
          </mxGeometry>
        </mxCell>
        <mxCell id="bgBxIiEgbgFTtYUzO9Qt-7" value="" style="endArrow=none;html=1;rounded=0;exitX=1;exitY=0.5;exitDx=0;exitDy=0;entryX=0;entryY=0.5;entryDx=0;entryDy=0;" edge="1" source="bgBxIiEgbgFTtYUzO9Qt-4" target="bgBxIiEgbgFTtYUzO9Qt-3" parent="1">
          <mxGeometry width="50" height="50" relative="1" as="geometry">
            <mxPoint x="356" y="-144" as="sourcePoint" />
            <mxPoint x="406" y="-194" as="targetPoint" />
          </mxGeometry>
        </mxCell>
        <mxCell id="bgBxIiEgbgFTtYUzO9Qt-8" value="" style="endArrow=none;html=1;rounded=0;exitX=0.342;exitY=1;exitDx=0;exitDy=0;exitPerimeter=0;" edge="1" source="bgBxIiEgbgFTtYUzO9Qt-2" target="bgBxIiEgbgFTtYUzO9Qt-3" parent="1">
          <mxGeometry width="50" height="50" relative="1" as="geometry">
            <mxPoint x="748" y="-218" as="sourcePoint" />
            <mxPoint x="701" y="-171.5" as="targetPoint" />
          </mxGeometry>
        </mxCell>
        <mxCell id="bgBxIiEgbgFTtYUzO9Qt-10" value="&lt;u&gt;&lt;b&gt;property ID&lt;/b&gt;&lt;/u&gt;" style="ellipse;whiteSpace=wrap;html=1;" vertex="1" parent="1">
          <mxGeometry x="597" y="-245" width="79" height="57" as="geometry" />
        </mxCell>
        <mxCell id="bgBxIiEgbgFTtYUzO9Qt-11" value="" style="endArrow=none;html=1;rounded=0;exitX=0.12;exitY=1;exitDx=0;exitDy=0;exitPerimeter=0;" edge="1" parent="1">
          <mxGeometry width="50" height="50" relative="1" as="geometry">
            <mxPoint x="533" y="-264" as="sourcePoint" />
            <mxPoint x="596" y="-224" as="targetPoint" />
          </mxGeometry>
        </mxCell>
        <mxCell id="bgBxIiEgbgFTtYUzO9Qt-14" value="Zip_code" style="ellipse;whiteSpace=wrap;html=1;" vertex="1" parent="1">
          <mxGeometry x="450" y="-108" width="58" height="42" as="geometry" />
        </mxCell>
        <mxCell id="bgBxIiEgbgFTtYUzO9Qt-15" value="" style="endArrow=none;html=1;rounded=0;exitX=1;exitY=0;exitDx=0;exitDy=0;entryX=1;entryY=1;entryDx=0;entryDy=0;" edge="1" source="bgBxIiEgbgFTtYUzO9Qt-14" parent="1" target="bgBxIiEgbgFTtYUzO9Qt-3">
          <mxGeometry width="50" height="50" relative="1" as="geometry">
            <mxPoint x="497" y="-104" as="sourcePoint" />
            <mxPoint x="523" y="-134" as="targetPoint" />
          </mxGeometry>
        </mxCell>
        <mxCell id="bgBxIiEgbgFTtYUzO9Qt-19" value="list" style="rhombus;whiteSpace=wrap;html=1;" vertex="1" parent="1">
          <mxGeometry x="524" y="-487" width="70.5" height="70.5" as="geometry" />
        </mxCell>
        <mxCell id="bgBxIiEgbgFTtYUzO9Qt-20" value="" style="endArrow=none;html=1;rounded=0;entryX=0.5;entryY=0;entryDx=0;entryDy=0;exitX=1;exitY=0.5;exitDx=0;exitDy=0;" edge="1" target="bgBxIiEgbgFTtYUzO9Qt-19" parent="1" source="1GG1aFj6YszDzGrMVSn9-15">
          <mxGeometry width="50" height="50" relative="1" as="geometry">
            <mxPoint x="722" y="-502" as="sourcePoint" />
            <mxPoint x="433" y="-382" as="targetPoint" />
          </mxGeometry>
        </mxCell>
        <mxCell id="bgBxIiEgbgFTtYUzO9Qt-21" value="" style="endArrow=none;html=1;rounded=0;exitX=0.5;exitY=1;exitDx=0;exitDy=0;entryX=0.75;entryY=0;entryDx=0;entryDy=0;" edge="1" source="bgBxIiEgbgFTtYUzO9Qt-19" parent="1" target="bgBxIiEgbgFTtYUzO9Qt-2">
          <mxGeometry width="50" height="50" relative="1" as="geometry">
            <mxPoint x="559" y="-425" as="sourcePoint" />
            <mxPoint x="452" y="-371" as="targetPoint" />
          </mxGeometry>
        </mxCell>
        <mxCell id="bgBxIiEgbgFTtYUzO9Qt-24" value="own" style="rhombus;whiteSpace=wrap;html=1;rotation=0;" vertex="1" parent="1">
          <mxGeometry x="197" y="-330" width="70.5" height="70.5" as="geometry" />
        </mxCell>
        <mxCell id="bgBxIiEgbgFTtYUzO9Qt-26" value="" style="endArrow=none;html=1;rounded=0;exitX=1;exitY=0.5;exitDx=0;exitDy=0;entryX=0;entryY=0.5;entryDx=0;entryDy=0;" edge="1" source="bgBxIiEgbgFTtYUzO9Qt-24" parent="1" target="bgBxIiEgbgFTtYUzO9Qt-2">
          <mxGeometry width="50" height="50" relative="1" as="geometry">
            <mxPoint x="191" y="-268" as="sourcePoint" />
            <mxPoint x="401" y="-299" as="targetPoint" />
          </mxGeometry>
        </mxCell>
        <mxCell id="bgBxIiEgbgFTtYUzO9Qt-27" value="1" style="text;html=1;align=center;verticalAlign=middle;resizable=0;points=[];autosize=1;strokeColor=none;fillColor=none;" vertex="1" parent="1">
          <mxGeometry x="438" y="-608" width="25" height="26" as="geometry" />
        </mxCell>
        <mxCell id="bgBxIiEgbgFTtYUzO9Qt-28" value="M" style="text;html=1;align=center;verticalAlign=middle;resizable=0;points=[];autosize=1;strokeColor=none;fillColor=none;" vertex="1" parent="1">
          <mxGeometry x="477" y="-335" width="28" height="26" as="geometry" />
        </mxCell>
        <mxCell id="bgBxIiEgbgFTtYUzO9Qt-30" value="owner" style="rounded=0;whiteSpace=wrap;html=1;" vertex="1" parent="1">
          <mxGeometry x="-55" y="-245" width="117" height="57" as="geometry" />
        </mxCell>
        <mxCell id="bgBxIiEgbgFTtYUzO9Qt-32" value="Owner_Name" style="ellipse;whiteSpace=wrap;html=1;" vertex="1" parent="1">
          <mxGeometry x="-179" y="-203" width="84" height="61" as="geometry" />
        </mxCell>
        <mxCell id="bgBxIiEgbgFTtYUzO9Qt-33" value="" style="endArrow=none;html=1;rounded=0;entryX=1;entryY=0;entryDx=0;entryDy=0;" edge="1" target="bgBxIiEgbgFTtYUzO9Qt-32" parent="1">
          <mxGeometry width="50" height="50" relative="1" as="geometry">
            <mxPoint x="-56" y="-220" as="sourcePoint" />
            <mxPoint x="-49" y="-449" as="targetPoint" />
          </mxGeometry>
        </mxCell>
        <mxCell id="bgBxIiEgbgFTtYUzO9Qt-34" value="&lt;u&gt;&lt;b&gt;Owner ID&lt;/b&gt;&lt;/u&gt;" style="ellipse;whiteSpace=wrap;html=1;" vertex="1" parent="1">
          <mxGeometry x="-28.5" y="-145" width="64" height="51" as="geometry" />
        </mxCell>
        <mxCell id="bgBxIiEgbgFTtYUzO9Qt-35" value="" style="endArrow=none;html=1;rounded=0;entryX=0.5;entryY=0;entryDx=0;entryDy=0;exitX=0.25;exitY=1;exitDx=0;exitDy=0;" edge="1" target="bgBxIiEgbgFTtYUzO9Qt-34" parent="1">
          <mxGeometry width="50" height="50" relative="1" as="geometry">
            <mxPoint x="11.5" y="-188" as="sourcePoint" />
            <mxPoint x="-65.5" y="-250" as="targetPoint" />
          </mxGeometry>
        </mxCell>
        <mxCell id="bgBxIiEgbgFTtYUzO9Qt-36" value="percent_owned" style="ellipse;whiteSpace=wrap;html=1;" vertex="1" parent="1">
          <mxGeometry x="145.25" y="-228" width="96" height="58" as="geometry" />
        </mxCell>
        <mxCell id="bgBxIiEgbgFTtYUzO9Qt-37" value="" style="endArrow=none;html=1;rounded=0;entryX=0.5;entryY=0;entryDx=0;entryDy=0;exitX=0.5;exitY=1;exitDx=0;exitDy=0;" edge="1" parent="1" source="bgBxIiEgbgFTtYUzO9Qt-24" target="bgBxIiEgbgFTtYUzO9Qt-36">
          <mxGeometry width="50" height="50" relative="1" as="geometry">
            <mxPoint x="21.5" y="-178" as="sourcePoint" />
            <mxPoint x="14" y="-135" as="targetPoint" />
          </mxGeometry>
        </mxCell>
        <mxCell id="bgBxIiEgbgFTtYUzO9Qt-38" value="" style="endArrow=none;html=1;rounded=0;entryX=0;entryY=0.5;entryDx=0;entryDy=0;" edge="1" parent="1">
          <mxGeometry width="50" height="50" relative="1" as="geometry">
            <mxPoint x="65" y="-214" as="sourcePoint" />
            <mxPoint x="198" y="-291" as="targetPoint" />
          </mxGeometry>
        </mxCell>
        <mxCell id="bgBxIiEgbgFTtYUzO9Qt-39" value="M" style="text;html=1;align=center;verticalAlign=middle;resizable=0;points=[];autosize=1;strokeColor=none;fillColor=none;" vertex="1" parent="1">
          <mxGeometry x="56" y="-240" width="28" height="26" as="geometry" />
        </mxCell>
        <mxCell id="bgBxIiEgbgFTtYUzO9Qt-40" value="M" style="text;html=1;align=center;verticalAlign=middle;resizable=0;points=[];autosize=1;strokeColor=none;fillColor=none;" vertex="1" parent="1">
          <mxGeometry x="390" y="-302" width="28" height="26" as="geometry" />
        </mxCell>
        <mxCell id="LZuNt2DR0ylFqfLRCTlG-3" value="" style="endArrow=none;html=1;rounded=0;entryX=0.5;entryY=0;entryDx=0;entryDy=0;exitX=0.5;exitY=1;exitDx=0;exitDy=0;" edge="1" parent="1">
          <mxGeometry width="50" height="50" relative="1" as="geometry">
            <mxPoint x="381" y="-561.5" as="sourcePoint" />
            <mxPoint x="295" y="-484.5" as="targetPoint" />
          </mxGeometry>
        </mxCell>
        <mxCell id="LZuNt2DR0ylFqfLRCTlG-4" value="" style="endArrow=none;html=1;rounded=0;entryX=0.75;entryY=0;entryDx=0;entryDy=0;exitX=0.5;exitY=1;exitDx=0;exitDy=0;" edge="1" parent="1">
          <mxGeometry width="50" height="50" relative="1" as="geometry">
            <mxPoint x="188" y="-510" as="sourcePoint" />
            <mxPoint x="72" y="-457" as="targetPoint" />
          </mxGeometry>
        </mxCell>
        <mxCell id="LZuNt2DR0ylFqfLRCTlG-5" value="" style="endArrow=none;html=1;rounded=0;exitX=0.5;exitY=1;exitDx=0;exitDy=0;entryX=0.75;entryY=0;entryDx=0;entryDy=0;" edge="1" parent="1">
          <mxGeometry width="50" height="50" relative="1" as="geometry">
            <mxPoint x="555" y="-416.5" as="sourcePoint" />
            <mxPoint x="499" y="-309.5" as="targetPoint" />
          </mxGeometry>
        </mxCell>
        <mxCell id="LZuNt2DR0ylFqfLRCTlG-6" value="" style="endArrow=none;html=1;rounded=0;entryX=0;entryY=0.5;entryDx=0;entryDy=0;" edge="1" parent="1">
          <mxGeometry width="50" height="50" relative="1" as="geometry">
            <mxPoint x="67" y="-211" as="sourcePoint" />
            <mxPoint x="200" y="-288" as="targetPoint" />
          </mxGeometry>
        </mxCell>
      </root>
    </mxGraphModel>
  </diagram>
  <diagram id="ZxwcB4AJeHwilD3llbeU" name="Page-3">
    <mxGraphModel dx="1834" dy="1990" grid="0" gridSize="10" guides="1" tooltips="1" connect="1" arrows="1" fold="1" page="0" pageScale="1" pageWidth="850" pageHeight="1100" math="0" shadow="0">
      <root>
        <mxCell id="0" />
        <mxCell id="1" parent="0" />
        <mxCell id="R8dq1AbJ8MNP8KY24WsC-1" value="patient" style="rounded=0;whiteSpace=wrap;html=1;" parent="1" vertex="1">
          <mxGeometry x="-68" y="-488" width="117" height="57" as="geometry" />
        </mxCell>
        <mxCell id="R8dq1AbJ8MNP8KY24WsC-2" value="Date of birth" style="ellipse;whiteSpace=wrap;html=1;" parent="1" vertex="1">
          <mxGeometry x="-198" y="-429" width="80" height="56" as="geometry" />
        </mxCell>
        <mxCell id="R8dq1AbJ8MNP8KY24WsC-3" value="&lt;u&gt;&lt;b&gt;Patient ID&lt;/b&gt;&lt;/u&gt;" style="ellipse;whiteSpace=wrap;html=1;" parent="1" vertex="1">
          <mxGeometry x="-73" y="-589" width="64" height="51" as="geometry" />
        </mxCell>
        <mxCell id="R8dq1AbJ8MNP8KY24WsC-4" value="name" style="ellipse;whiteSpace=wrap;html=1;" parent="1" vertex="1">
          <mxGeometry x="-198" y="-528" width="72" height="54" as="geometry" />
        </mxCell>
        <mxCell id="R8dq1AbJ8MNP8KY24WsC-8" value="" style="endArrow=none;html=1;rounded=0;exitX=0;exitY=0.5;exitDx=0;exitDy=0;" parent="1" source="R8dq1AbJ8MNP8KY24WsC-1" target="R8dq1AbJ8MNP8KY24WsC-2" edge="1">
          <mxGeometry width="50" height="50" relative="1" as="geometry">
            <mxPoint x="383" y="-188" as="sourcePoint" />
            <mxPoint x="-115" y="-413" as="targetPoint" />
          </mxGeometry>
        </mxCell>
        <mxCell id="R8dq1AbJ8MNP8KY24WsC-9" value="" style="endArrow=none;html=1;rounded=0;entryX=0.5;entryY=1;entryDx=0;entryDy=0;exitX=0.5;exitY=0;exitDx=0;exitDy=0;" parent="1" source="R8dq1AbJ8MNP8KY24WsC-1" target="R8dq1AbJ8MNP8KY24WsC-3" edge="1">
          <mxGeometry width="50" height="50" relative="1" as="geometry">
            <mxPoint x="383" y="-188" as="sourcePoint" />
            <mxPoint x="433" y="-238" as="targetPoint" />
          </mxGeometry>
        </mxCell>
        <mxCell id="R8dq1AbJ8MNP8KY24WsC-10" value="" style="endArrow=none;html=1;rounded=0;entryX=1;entryY=0.5;entryDx=0;entryDy=0;exitX=0;exitY=0;exitDx=0;exitDy=0;" parent="1" source="R8dq1AbJ8MNP8KY24WsC-1" target="R8dq1AbJ8MNP8KY24WsC-4" edge="1">
          <mxGeometry width="50" height="50" relative="1" as="geometry">
            <mxPoint x="393" y="-178" as="sourcePoint" />
            <mxPoint x="443" y="-228" as="targetPoint" />
          </mxGeometry>
        </mxCell>
        <mxCell id="R8dq1AbJ8MNP8KY24WsC-14" value="Ward" style="rounded=0;whiteSpace=wrap;html=1;" parent="1" vertex="1">
          <mxGeometry x="156" y="-683" width="117" height="57" as="geometry" />
        </mxCell>
        <mxCell id="R8dq1AbJ8MNP8KY24WsC-15" value="&lt;u&gt;&lt;b&gt;Ward ID&lt;/b&gt;&lt;/u&gt;" style="ellipse;whiteSpace=wrap;html=1;" parent="1" vertex="1">
          <mxGeometry x="172" y="-784" width="64" height="51" as="geometry" />
        </mxCell>
        <mxCell id="R8dq1AbJ8MNP8KY24WsC-16" value="ward_Name" style="ellipse;whiteSpace=wrap;html=1;" parent="1" vertex="1">
          <mxGeometry x="26" y="-724" width="72" height="54" as="geometry" />
        </mxCell>
        <mxCell id="R8dq1AbJ8MNP8KY24WsC-18" value="" style="endArrow=none;html=1;rounded=0;entryX=0.5;entryY=1;entryDx=0;entryDy=0;exitX=0.5;exitY=0;exitDx=0;exitDy=0;" parent="1" source="R8dq1AbJ8MNP8KY24WsC-14" target="R8dq1AbJ8MNP8KY24WsC-15" edge="1">
          <mxGeometry width="50" height="50" relative="1" as="geometry">
            <mxPoint x="607" y="-383" as="sourcePoint" />
            <mxPoint x="657" y="-433" as="targetPoint" />
          </mxGeometry>
        </mxCell>
        <mxCell id="R8dq1AbJ8MNP8KY24WsC-19" value="" style="endArrow=none;html=1;rounded=0;entryX=1;entryY=0.5;entryDx=0;entryDy=0;exitX=0;exitY=0;exitDx=0;exitDy=0;" parent="1" source="R8dq1AbJ8MNP8KY24WsC-14" target="R8dq1AbJ8MNP8KY24WsC-16" edge="1">
          <mxGeometry width="50" height="50" relative="1" as="geometry">
            <mxPoint x="617" y="-373" as="sourcePoint" />
            <mxPoint x="667" y="-423" as="targetPoint" />
          </mxGeometry>
        </mxCell>
        <mxCell id="R8dq1AbJ8MNP8KY24WsC-21" value="consultant" style="rounded=0;whiteSpace=wrap;html=1;" parent="1" vertex="1">
          <mxGeometry x="176" y="-364" width="117" height="57" as="geometry" />
        </mxCell>
        <mxCell id="R8dq1AbJ8MNP8KY24WsC-22" value="&lt;u&gt;&lt;b&gt;consultant ID&lt;/b&gt;&lt;/u&gt;" style="ellipse;whiteSpace=wrap;html=1;" parent="1" vertex="1">
          <mxGeometry x="308" y="-282" width="93" height="51" as="geometry" />
        </mxCell>
        <mxCell id="R8dq1AbJ8MNP8KY24WsC-23" value="&lt;span style=&quot;border-color: var(--border-color);&quot;&gt;&lt;span style=&quot;border-color: var(--border-color);&quot;&gt;consultant&amp;nbsp;&lt;/span&gt;&lt;/span&gt;_Name" style="ellipse;whiteSpace=wrap;html=1;" parent="1" vertex="1">
          <mxGeometry x="130" y="-275" width="109" height="76" as="geometry" />
        </mxCell>
        <mxCell id="R8dq1AbJ8MNP8KY24WsC-24" value="" style="endArrow=none;html=1;rounded=0;entryX=0.5;entryY=0;entryDx=0;entryDy=0;exitX=0.75;exitY=1;exitDx=0;exitDy=0;" parent="1" source="R8dq1AbJ8MNP8KY24WsC-21" target="R8dq1AbJ8MNP8KY24WsC-22" edge="1">
          <mxGeometry width="50" height="50" relative="1" as="geometry">
            <mxPoint x="631" y="-67" as="sourcePoint" />
            <mxPoint x="681" y="-117" as="targetPoint" />
          </mxGeometry>
        </mxCell>
        <mxCell id="R8dq1AbJ8MNP8KY24WsC-25" value="" style="endArrow=none;html=1;rounded=0;entryX=0.5;entryY=0;entryDx=0;entryDy=0;" parent="1" target="R8dq1AbJ8MNP8KY24WsC-23" edge="1">
          <mxGeometry width="50" height="50" relative="1" as="geometry">
            <mxPoint x="207" y="-305" as="sourcePoint" />
            <mxPoint x="691" y="-107" as="targetPoint" />
          </mxGeometry>
        </mxCell>
        <mxCell id="R8dq1AbJ8MNP8KY24WsC-26" value="nurse" style="rounded=0;whiteSpace=wrap;html=1;" parent="1" vertex="1">
          <mxGeometry x="508" y="-801" width="117" height="57" as="geometry" />
        </mxCell>
        <mxCell id="R8dq1AbJ8MNP8KY24WsC-27" value="address" style="ellipse;whiteSpace=wrap;html=1;" parent="1" vertex="1">
          <mxGeometry x="558" y="-719" width="80" height="56" as="geometry" />
        </mxCell>
        <mxCell id="R8dq1AbJ8MNP8KY24WsC-28" value="&lt;b&gt;&lt;u&gt;number&lt;/u&gt;&lt;/b&gt;" style="ellipse;whiteSpace=wrap;html=1;" parent="1" vertex="1">
          <mxGeometry x="600" y="-880" width="64" height="51" as="geometry" />
        </mxCell>
        <mxCell id="R8dq1AbJ8MNP8KY24WsC-29" value="name" style="ellipse;whiteSpace=wrap;html=1;" parent="1" vertex="1">
          <mxGeometry x="664" y="-788" width="72" height="54" as="geometry" />
        </mxCell>
        <mxCell id="R8dq1AbJ8MNP8KY24WsC-30" value="" style="endArrow=none;html=1;rounded=0;exitX=0.5;exitY=1;exitDx=0;exitDy=0;" parent="1" source="R8dq1AbJ8MNP8KY24WsC-26" target="R8dq1AbJ8MNP8KY24WsC-27" edge="1">
          <mxGeometry width="50" height="50" relative="1" as="geometry">
            <mxPoint x="959" y="-501" as="sourcePoint" />
            <mxPoint x="461" y="-726" as="targetPoint" />
          </mxGeometry>
        </mxCell>
        <mxCell id="R8dq1AbJ8MNP8KY24WsC-31" value="" style="endArrow=none;html=1;rounded=0;entryX=0.5;entryY=1;entryDx=0;entryDy=0;exitX=0.5;exitY=0;exitDx=0;exitDy=0;" parent="1" source="R8dq1AbJ8MNP8KY24WsC-26" target="R8dq1AbJ8MNP8KY24WsC-28" edge="1">
          <mxGeometry width="50" height="50" relative="1" as="geometry">
            <mxPoint x="959" y="-501" as="sourcePoint" />
            <mxPoint x="1009" y="-551" as="targetPoint" />
          </mxGeometry>
        </mxCell>
        <mxCell id="R8dq1AbJ8MNP8KY24WsC-32" value="" style="endArrow=none;html=1;rounded=0;exitX=1;exitY=0.5;exitDx=0;exitDy=0;entryX=0;entryY=0.5;entryDx=0;entryDy=0;" parent="1" source="R8dq1AbJ8MNP8KY24WsC-26" target="R8dq1AbJ8MNP8KY24WsC-29" edge="1">
          <mxGeometry width="50" height="50" relative="1" as="geometry">
            <mxPoint x="969" y="-491" as="sourcePoint" />
            <mxPoint x="662" y="-772" as="targetPoint" />
          </mxGeometry>
        </mxCell>
        <mxCell id="R8dq1AbJ8MNP8KY24WsC-33" value="drug" style="rounded=0;whiteSpace=wrap;html=1;" parent="1" vertex="1">
          <mxGeometry x="529.75" y="-426" width="117" height="57" as="geometry" />
        </mxCell>
        <mxCell id="R8dq1AbJ8MNP8KY24WsC-34" value="&lt;b&gt;&lt;u&gt;code number&lt;/u&gt;&lt;/b&gt;" style="ellipse;whiteSpace=wrap;html=1;" parent="1" vertex="1">
          <mxGeometry x="638" y="-502" width="93" height="51" as="geometry" />
        </mxCell>
        <mxCell id="R8dq1AbJ8MNP8KY24WsC-35" value="dosage" style="ellipse;whiteSpace=wrap;html=1;" parent="1" vertex="1">
          <mxGeometry x="570" y="-324" width="72" height="54" as="geometry" />
        </mxCell>
        <mxCell id="R8dq1AbJ8MNP8KY24WsC-36" value="" style="endArrow=none;html=1;rounded=0;entryX=0.039;entryY=0.699;entryDx=0;entryDy=0;exitX=0.5;exitY=0;exitDx=0;exitDy=0;entryPerimeter=0;" parent="1" source="R8dq1AbJ8MNP8KY24WsC-33" target="R8dq1AbJ8MNP8KY24WsC-34" edge="1">
          <mxGeometry width="50" height="50" relative="1" as="geometry">
            <mxPoint x="980.75" y="-126" as="sourcePoint" />
            <mxPoint x="1030.75" y="-176" as="targetPoint" />
          </mxGeometry>
        </mxCell>
        <mxCell id="R8dq1AbJ8MNP8KY24WsC-37" value="" style="endArrow=none;html=1;rounded=0;entryX=0.458;entryY=0.056;entryDx=0;entryDy=0;entryPerimeter=0;exitX=0.25;exitY=1;exitDx=0;exitDy=0;" parent="1" source="R8dq1AbJ8MNP8KY24WsC-33" target="R8dq1AbJ8MNP8KY24WsC-35" edge="1">
          <mxGeometry width="50" height="50" relative="1" as="geometry">
            <mxPoint x="554" y="-352" as="sourcePoint" />
            <mxPoint x="1040.75" y="-166" as="targetPoint" />
          </mxGeometry>
        </mxCell>
        <mxCell id="R8dq1AbJ8MNP8KY24WsC-39" value="brand nmae" style="ellipse;whiteSpace=wrap;html=1;" parent="1" vertex="1">
          <mxGeometry x="697" y="-411.5" width="72" height="54" as="geometry" />
        </mxCell>
        <mxCell id="R8dq1AbJ8MNP8KY24WsC-41" value="" style="endArrow=none;html=1;rounded=0;entryX=1;entryY=0.5;entryDx=0;entryDy=0;exitX=0.014;exitY=0.63;exitDx=0;exitDy=0;exitPerimeter=0;" parent="1" source="R8dq1AbJ8MNP8KY24WsC-39" target="R8dq1AbJ8MNP8KY24WsC-33" edge="1">
          <mxGeometry width="50" height="50" relative="1" as="geometry">
            <mxPoint x="687.75" y="-380" as="sourcePoint" />
            <mxPoint x="660.75" y="-415" as="targetPoint" />
          </mxGeometry>
        </mxCell>
        <mxCell id="R8dq1AbJ8MNP8KY24WsC-42" value="" style="ellipse;whiteSpace=wrap;html=1;fillColor=none;" parent="1" vertex="1">
          <mxGeometry x="691" y="-415" width="84" height="61" as="geometry" />
        </mxCell>
        <mxCell id="Vicm1g7vhV4Oj3RJiZ11-1" value="host" style="rhombus;whiteSpace=wrap;html=1;" parent="1" vertex="1">
          <mxGeometry x="72" y="-608.5" width="70.5" height="70.5" as="geometry" />
        </mxCell>
        <mxCell id="Vicm1g7vhV4Oj3RJiZ11-2" value="" style="endArrow=none;html=1;rounded=0;entryX=0.75;entryY=0;entryDx=0;entryDy=0;exitX=0.5;exitY=1;exitDx=0;exitDy=0;" parent="1" source="Vicm1g7vhV4Oj3RJiZ11-1" target="R8dq1AbJ8MNP8KY24WsC-1" edge="1">
          <mxGeometry width="50" height="50" relative="1" as="geometry">
            <mxPoint x="96" y="-505.5" as="sourcePoint" />
            <mxPoint x="38" y="-519.5" as="targetPoint" />
          </mxGeometry>
        </mxCell>
        <mxCell id="Vicm1g7vhV4Oj3RJiZ11-3" value="" style="endArrow=none;html=1;rounded=0;exitX=0.5;exitY=0;exitDx=0;exitDy=0;entryX=0;entryY=0.5;entryDx=0;entryDy=0;" parent="1" source="Vicm1g7vhV4Oj3RJiZ11-1" target="R8dq1AbJ8MNP8KY24WsC-14" edge="1">
          <mxGeometry width="50" height="50" relative="1" as="geometry">
            <mxPoint x="176" y="-663" as="sourcePoint" />
            <mxPoint x="153" y="-649" as="targetPoint" />
          </mxGeometry>
        </mxCell>
        <mxCell id="FPXmGmo3doKk2UJx6avm-1" value="1" style="text;html=1;align=center;verticalAlign=middle;resizable=0;points=[];autosize=1;strokeColor=none;fillColor=none;" parent="1" vertex="1">
          <mxGeometry x="123" y="-667.5" width="25" height="26" as="geometry" />
        </mxCell>
        <mxCell id="FPXmGmo3doKk2UJx6avm-2" value="M" style="text;html=1;align=center;verticalAlign=middle;resizable=0;points=[];autosize=1;strokeColor=none;fillColor=none;" parent="1" vertex="1">
          <mxGeometry x="3" y="-513" width="28" height="26" as="geometry" />
        </mxCell>
        <mxCell id="FPXmGmo3doKk2UJx6avm-3" value="assign" style="rhombus;whiteSpace=wrap;html=1;" parent="1" vertex="1">
          <mxGeometry x="7" y="-360.5" width="70.5" height="70.5" as="geometry" />
        </mxCell>
        <mxCell id="FPXmGmo3doKk2UJx6avm-4" value="" style="endArrow=none;html=1;rounded=0;exitX=0;exitY=0.5;exitDx=0;exitDy=0;entryX=0.5;entryY=1;entryDx=0;entryDy=0;" parent="1" source="FPXmGmo3doKk2UJx6avm-3" target="R8dq1AbJ8MNP8KY24WsC-1" edge="1">
          <mxGeometry width="50" height="50" relative="1" as="geometry">
            <mxPoint x="-1" y="-377" as="sourcePoint" />
            <mxPoint x="-107" y="-318" as="targetPoint" />
          </mxGeometry>
        </mxCell>
        <mxCell id="FPXmGmo3doKk2UJx6avm-5" value="" style="endArrow=none;html=1;rounded=0;entryX=1;entryY=0.5;entryDx=0;entryDy=0;exitX=0;exitY=0.5;exitDx=0;exitDy=0;" parent="1" source="R8dq1AbJ8MNP8KY24WsC-21" target="FPXmGmo3doKk2UJx6avm-3" edge="1">
          <mxGeometry width="50" height="50" relative="1" as="geometry">
            <mxPoint x="214" y="-444" as="sourcePoint" />
            <mxPoint x="127" y="-394" as="targetPoint" />
          </mxGeometry>
        </mxCell>
        <mxCell id="FPXmGmo3doKk2UJx6avm-6" value="examin" style="rhombus;whiteSpace=wrap;html=1;" parent="1" vertex="1">
          <mxGeometry x="130" y="-461" width="70.5" height="70.5" as="geometry" />
        </mxCell>
        <mxCell id="FPXmGmo3doKk2UJx6avm-7" value="" style="endArrow=none;html=1;rounded=0;exitX=0;exitY=0.5;exitDx=0;exitDy=0;entryX=1;entryY=0.5;entryDx=0;entryDy=0;" parent="1" source="FPXmGmo3doKk2UJx6avm-6" target="R8dq1AbJ8MNP8KY24WsC-1" edge="1">
          <mxGeometry width="50" height="50" relative="1" as="geometry">
            <mxPoint x="80" y="-427" as="sourcePoint" />
            <mxPoint x="72" y="-481" as="targetPoint" />
          </mxGeometry>
        </mxCell>
        <mxCell id="FPXmGmo3doKk2UJx6avm-8" value="" style="endArrow=none;html=1;rounded=0;entryX=1;entryY=0.5;entryDx=0;entryDy=0;exitX=0.5;exitY=0;exitDx=0;exitDy=0;" parent="1" source="R8dq1AbJ8MNP8KY24WsC-21" target="FPXmGmo3doKk2UJx6avm-6" edge="1">
          <mxGeometry width="50" height="50" relative="1" as="geometry">
            <mxPoint x="257" y="-386" as="sourcePoint" />
            <mxPoint x="208" y="-444" as="targetPoint" />
          </mxGeometry>
        </mxCell>
        <mxCell id="FPXmGmo3doKk2UJx6avm-9" value="M" style="text;html=1;align=center;verticalAlign=middle;resizable=0;points=[];autosize=1;strokeColor=none;fillColor=none;rotation=0;" parent="1" vertex="1">
          <mxGeometry x="42" y="-461" width="28" height="26" as="geometry" />
        </mxCell>
        <mxCell id="FPXmGmo3doKk2UJx6avm-10" value="M" style="text;html=1;align=center;verticalAlign=middle;resizable=0;points=[];autosize=1;strokeColor=none;fillColor=none;" parent="1" vertex="1">
          <mxGeometry x="-37" y="-429" width="28" height="26" as="geometry" />
        </mxCell>
        <mxCell id="FPXmGmo3doKk2UJx6avm-11" value="1" style="text;html=1;align=center;verticalAlign=middle;resizable=0;points=[];autosize=1;strokeColor=none;fillColor=none;" parent="1" vertex="1">
          <mxGeometry x="148" y="-338.25" width="25" height="26" as="geometry" />
        </mxCell>
        <mxCell id="FPXmGmo3doKk2UJx6avm-12" value="M" style="text;html=1;align=center;verticalAlign=middle;resizable=0;points=[];autosize=1;strokeColor=none;fillColor=none;" parent="1" vertex="1">
          <mxGeometry x="228" y="-386.5" width="28" height="26" as="geometry" />
        </mxCell>
        <mxCell id="FPXmGmo3doKk2UJx6avm-13" value="give" style="rhombus;whiteSpace=wrap;html=1;" parent="1" vertex="1">
          <mxGeometry x="414" y="-615" width="70.5" height="70.5" as="geometry" />
        </mxCell>
        <mxCell id="FPXmGmo3doKk2UJx6avm-14" value="" style="endArrow=none;html=1;rounded=0;exitX=0.999;exitY=0.147;exitDx=0;exitDy=0;exitPerimeter=0;" parent="1" source="R8dq1AbJ8MNP8KY24WsC-1" edge="1">
          <mxGeometry width="50" height="50" relative="1" as="geometry">
            <mxPoint x="285" y="-598" as="sourcePoint" />
            <mxPoint x="413" y="-582" as="targetPoint" />
          </mxGeometry>
        </mxCell>
        <mxCell id="FPXmGmo3doKk2UJx6avm-15" value="" style="endArrow=none;html=1;rounded=0;entryX=0;entryY=0.5;entryDx=0;entryDy=0;exitX=0.5;exitY=1;exitDx=0;exitDy=0;" parent="1" source="FPXmGmo3doKk2UJx6avm-13" target="R8dq1AbJ8MNP8KY24WsC-33" edge="1">
          <mxGeometry width="50" height="50" relative="1" as="geometry">
            <mxPoint x="477" y="-351" as="sourcePoint" />
            <mxPoint x="594.75" y="-332" as="targetPoint" />
          </mxGeometry>
        </mxCell>
        <mxCell id="FPXmGmo3doKk2UJx6avm-16" value="" style="endArrow=none;html=1;rounded=0;exitX=0;exitY=1;exitDx=0;exitDy=0;entryX=0.5;entryY=0;entryDx=0;entryDy=0;" parent="1" source="R8dq1AbJ8MNP8KY24WsC-26" target="FPXmGmo3doKk2UJx6avm-13" edge="1">
          <mxGeometry width="50" height="50" relative="1" as="geometry">
            <mxPoint x="524" y="-654" as="sourcePoint" />
            <mxPoint x="430" y="-685" as="targetPoint" />
          </mxGeometry>
        </mxCell>
        <mxCell id="FPXmGmo3doKk2UJx6avm-18" value="dosage date" style="ellipse;whiteSpace=wrap;html=1;" parent="1" vertex="1">
          <mxGeometry x="513" y="-626" width="61" height="46" as="geometry" />
        </mxCell>
        <mxCell id="FPXmGmo3doKk2UJx6avm-19" value="dosage time" style="ellipse;whiteSpace=wrap;html=1;" parent="1" vertex="1">
          <mxGeometry x="519" y="-572" width="55" height="41" as="geometry" />
        </mxCell>
        <mxCell id="FPXmGmo3doKk2UJx6avm-20" value="" style="endArrow=none;html=1;rounded=0;exitX=0;exitY=0.5;exitDx=0;exitDy=0;entryX=1;entryY=0;entryDx=0;entryDy=0;" parent="1" source="FPXmGmo3doKk2UJx6avm-18" target="FPXmGmo3doKk2UJx6avm-13" edge="1">
          <mxGeometry width="50" height="50" relative="1" as="geometry">
            <mxPoint x="545.5" y="-686.5" as="sourcePoint" />
            <mxPoint x="484.5" y="-622.5" as="targetPoint" />
          </mxGeometry>
        </mxCell>
        <mxCell id="FPXmGmo3doKk2UJx6avm-21" value="" style="endArrow=none;html=1;rounded=0;exitX=1;exitY=1;exitDx=0;exitDy=0;entryX=0;entryY=0.5;entryDx=0;entryDy=0;" parent="1" source="FPXmGmo3doKk2UJx6avm-13" target="FPXmGmo3doKk2UJx6avm-19" edge="1">
          <mxGeometry width="50" height="50" relative="1" as="geometry">
            <mxPoint x="291.5" y="-512" as="sourcePoint" />
            <mxPoint x="484.5" y="-416" as="targetPoint" />
          </mxGeometry>
        </mxCell>
        <mxCell id="FPXmGmo3doKk2UJx6avm-22" value="serve" style="rhombus;whiteSpace=wrap;html=1;" parent="1" vertex="1">
          <mxGeometry x="351" y="-793.75" width="70.5" height="70.5" as="geometry" />
        </mxCell>
        <mxCell id="FPXmGmo3doKk2UJx6avm-23" value="" style="endArrow=none;html=1;rounded=0;entryX=0;entryY=0.5;entryDx=0;entryDy=0;exitX=1;exitY=0.5;exitDx=0;exitDy=0;" parent="1" source="FPXmGmo3doKk2UJx6avm-22" target="R8dq1AbJ8MNP8KY24WsC-26" edge="1">
          <mxGeometry width="50" height="50" relative="1" as="geometry">
            <mxPoint x="225" y="-673" as="sourcePoint" />
            <mxPoint x="214" y="-723" as="targetPoint" />
          </mxGeometry>
        </mxCell>
        <mxCell id="FPXmGmo3doKk2UJx6avm-24" value="" style="endArrow=none;html=1;rounded=0;entryX=1;entryY=0;entryDx=0;entryDy=0;exitX=0;exitY=0.5;exitDx=0;exitDy=0;" parent="1" source="FPXmGmo3doKk2UJx6avm-22" target="R8dq1AbJ8MNP8KY24WsC-14" edge="1">
          <mxGeometry width="50" height="50" relative="1" as="geometry">
            <mxPoint x="235" y="-663" as="sourcePoint" />
            <mxPoint x="224" y="-713" as="targetPoint" />
          </mxGeometry>
        </mxCell>
        <mxCell id="FPXmGmo3doKk2UJx6avm-27" value="M" style="text;html=1;align=center;verticalAlign=middle;resizable=0;points=[];autosize=1;strokeColor=none;fillColor=none;" parent="1" vertex="1">
          <mxGeometry x="449" y="-554" width="28" height="26" as="geometry" />
        </mxCell>
        <mxCell id="FPXmGmo3doKk2UJx6avm-28" value="M" style="text;html=1;align=center;verticalAlign=middle;resizable=0;points=[];autosize=1;strokeColor=none;fillColor=none;" parent="1" vertex="1">
          <mxGeometry x="429" y="-641.5" width="28" height="26" as="geometry" />
        </mxCell>
        <mxCell id="FPXmGmo3doKk2UJx6avm-29" value="M" style="text;html=1;align=center;verticalAlign=middle;resizable=0;points=[];autosize=1;strokeColor=none;fillColor=none;" parent="1" vertex="1">
          <mxGeometry x="393.5" y="-576.5" width="28" height="26" as="geometry" />
        </mxCell>
        <mxCell id="FPXmGmo3doKk2UJx6avm-30" value="1" style="text;html=1;align=center;verticalAlign=middle;resizable=0;points=[];autosize=1;strokeColor=none;fillColor=none;" parent="1" vertex="1">
          <mxGeometry x="252" y="-709" width="25" height="26" as="geometry" />
        </mxCell>
        <mxCell id="FPXmGmo3doKk2UJx6avm-31" value="M" style="text;html=1;align=center;verticalAlign=middle;resizable=0;points=[];autosize=1;strokeColor=none;fillColor=none;" parent="1" vertex="1">
          <mxGeometry x="477" y="-793.75" width="28" height="26" as="geometry" />
        </mxCell>
        <mxCell id="FPXmGmo3doKk2UJx6avm-34" value="" style="endArrow=none;html=1;rounded=0;entryX=0.75;entryY=0;entryDx=0;entryDy=0;exitX=0.5;exitY=1;exitDx=0;exitDy=0;" parent="1" edge="1">
          <mxGeometry width="50" height="50" relative="1" as="geometry">
            <mxPoint x="105.5" y="-541" as="sourcePoint" />
            <mxPoint x="18.5" y="-491" as="targetPoint" />
          </mxGeometry>
        </mxCell>
        <mxCell id="558GU4Jb7P9bdTnfprOh-1" value="" style="endArrow=none;html=1;rounded=0;exitX=0;exitY=0.5;exitDx=0;exitDy=0;entryX=0.5;entryY=1;entryDx=0;entryDy=0;" parent="1" edge="1">
          <mxGeometry width="50" height="50" relative="1" as="geometry">
            <mxPoint x="13" y="-325" as="sourcePoint" />
            <mxPoint x="-3" y="-431" as="targetPoint" />
          </mxGeometry>
        </mxCell>
        <mxCell id="558GU4Jb7P9bdTnfprOh-2" value="supervise" style="rhombus;whiteSpace=wrap;html=1;" parent="1" vertex="1">
          <mxGeometry x="338" y="-705" width="70.5" height="70.5" as="geometry" />
        </mxCell>
        <mxCell id="558GU4Jb7P9bdTnfprOh-3" value="" style="endArrow=none;html=1;rounded=0;entryX=0;entryY=0.75;entryDx=0;entryDy=0;exitX=1;exitY=0.5;exitDx=0;exitDy=0;" parent="1" source="558GU4Jb7P9bdTnfprOh-2" target="R8dq1AbJ8MNP8KY24WsC-26" edge="1">
          <mxGeometry width="50" height="50" relative="1" as="geometry">
            <mxPoint x="212" y="-584.25" as="sourcePoint" />
            <mxPoint x="495" y="-683.25" as="targetPoint" />
          </mxGeometry>
        </mxCell>
        <mxCell id="558GU4Jb7P9bdTnfprOh-4" value="" style="endArrow=none;html=1;rounded=0;entryX=1;entryY=0.5;entryDx=0;entryDy=0;exitX=0;exitY=0.5;exitDx=0;exitDy=0;" parent="1" source="558GU4Jb7P9bdTnfprOh-2" target="R8dq1AbJ8MNP8KY24WsC-14" edge="1">
          <mxGeometry width="50" height="50" relative="1" as="geometry">
            <mxPoint x="222" y="-574.25" as="sourcePoint" />
            <mxPoint x="260" y="-594.25" as="targetPoint" />
          </mxGeometry>
        </mxCell>
        <mxCell id="558GU4Jb7P9bdTnfprOh-5" value="1" style="text;html=1;align=center;verticalAlign=middle;resizable=0;points=[];autosize=1;strokeColor=none;fillColor=none;" parent="1" vertex="1">
          <mxGeometry x="271" y="-658" width="25" height="26" as="geometry" />
        </mxCell>
        <mxCell id="558GU4Jb7P9bdTnfprOh-6" value="1" style="text;html=1;align=center;verticalAlign=middle;resizable=0;points=[];autosize=1;strokeColor=none;fillColor=none;" parent="1" vertex="1">
          <mxGeometry x="473" y="-764" width="25" height="26" as="geometry" />
        </mxCell>
        <mxCell id="558GU4Jb7P9bdTnfprOh-7" value="" style="endArrow=none;html=1;rounded=0;entryX=1;entryY=0.5;entryDx=0;entryDy=0;exitX=0;exitY=0.5;exitDx=0;exitDy=0;" parent="1" edge="1">
          <mxGeometry width="50" height="50" relative="1" as="geometry">
            <mxPoint x="342" y="-674" as="sourcePoint" />
            <mxPoint x="277" y="-658" as="targetPoint" />
          </mxGeometry>
        </mxCell>
        <mxCell id="558GU4Jb7P9bdTnfprOh-8" value="" style="endArrow=none;html=1;rounded=0;entryX=0;entryY=0.5;entryDx=0;entryDy=0;exitX=1;exitY=0.5;exitDx=0;exitDy=0;" parent="1" edge="1">
          <mxGeometry width="50" height="50" relative="1" as="geometry">
            <mxPoint x="421.5" y="-754" as="sourcePoint" />
            <mxPoint x="507.5" y="-768" as="targetPoint" />
          </mxGeometry>
        </mxCell>
      </root>
    </mxGraphModel>
  </diagram>
  <diagram id="bBSrP42avm6TArE6N-8S" name="Page-4">
    <mxGraphModel dx="2087" dy="2129" grid="0" gridSize="10" guides="1" tooltips="1" connect="1" arrows="1" fold="1" page="0" pageScale="1" pageWidth="850" pageHeight="1100" math="0" shadow="0">
      <root>
        <mxCell id="0" />
        <mxCell id="1" parent="0" />
        <mxCell id="NgbMezOWZ3UJuck3Fulb-1" value="airline" style="rounded=0;whiteSpace=wrap;html=1;" parent="1" vertex="1">
          <mxGeometry x="-93" y="-471" width="117" height="62" as="geometry" />
        </mxCell>
        <mxCell id="NgbMezOWZ3UJuck3Fulb-2" value="address" style="ellipse;whiteSpace=wrap;html=1;" parent="1" vertex="1">
          <mxGeometry x="-193" y="-456" width="64" height="51" as="geometry" />
        </mxCell>
        <mxCell id="NgbMezOWZ3UJuck3Fulb-3" value="&lt;u&gt;&lt;b&gt;ID&lt;/b&gt;&lt;/u&gt;" style="ellipse;whiteSpace=wrap;html=1;" parent="1" vertex="1">
          <mxGeometry x="-102" y="-555" width="64" height="51" as="geometry" />
        </mxCell>
        <mxCell id="NgbMezOWZ3UJuck3Fulb-4" value="name" style="ellipse;whiteSpace=wrap;html=1;" parent="1" vertex="1">
          <mxGeometry x="-187" y="-527" width="72" height="54" as="geometry" />
        </mxCell>
        <mxCell id="NgbMezOWZ3UJuck3Fulb-8" value="" style="endArrow=none;html=1;rounded=0;exitX=0;exitY=0.5;exitDx=0;exitDy=0;" parent="1" source="NgbMezOWZ3UJuck3Fulb-1" target="NgbMezOWZ3UJuck3Fulb-2" edge="1">
          <mxGeometry width="50" height="50" relative="1" as="geometry">
            <mxPoint x="-96" y="-442" as="sourcePoint" />
            <mxPoint x="-111" y="-403" as="targetPoint" />
          </mxGeometry>
        </mxCell>
        <mxCell id="NgbMezOWZ3UJuck3Fulb-9" value="" style="endArrow=none;html=1;rounded=0;exitX=0.5;exitY=0;exitDx=0;exitDy=0;" parent="1" source="NgbMezOWZ3UJuck3Fulb-1" target="NgbMezOWZ3UJuck3Fulb-3" edge="1">
          <mxGeometry width="50" height="50" relative="1" as="geometry">
            <mxPoint x="387" y="-178" as="sourcePoint" />
            <mxPoint x="437" y="-228" as="targetPoint" />
          </mxGeometry>
        </mxCell>
        <mxCell id="NgbMezOWZ3UJuck3Fulb-10" value="" style="endArrow=none;html=1;rounded=0;entryX=1;entryY=0.5;entryDx=0;entryDy=0;exitX=0;exitY=0;exitDx=0;exitDy=0;" parent="1" source="NgbMezOWZ3UJuck3Fulb-1" target="NgbMezOWZ3UJuck3Fulb-4" edge="1">
          <mxGeometry width="50" height="50" relative="1" as="geometry">
            <mxPoint x="397" y="-168" as="sourcePoint" />
            <mxPoint x="447" y="-218" as="targetPoint" />
          </mxGeometry>
        </mxCell>
        <mxCell id="NgbMezOWZ3UJuck3Fulb-14" value="name of contact" style="ellipse;whiteSpace=wrap;html=1;" parent="1" vertex="1">
          <mxGeometry x="-157" y="-385" width="64" height="51" as="geometry" />
        </mxCell>
        <mxCell id="NgbMezOWZ3UJuck3Fulb-15" value="" style="endArrow=none;html=1;rounded=0;exitX=0.25;exitY=1;exitDx=0;exitDy=0;" parent="1" source="NgbMezOWZ3UJuck3Fulb-1" target="NgbMezOWZ3UJuck3Fulb-14" edge="1">
          <mxGeometry width="50" height="50" relative="1" as="geometry">
            <mxPoint x="-83" y="-432" as="sourcePoint" />
            <mxPoint x="-101" y="-393" as="targetPoint" />
          </mxGeometry>
        </mxCell>
        <mxCell id="NgbMezOWZ3UJuck3Fulb-16" value="telephon" style="ellipse;whiteSpace=wrap;html=1;" parent="1" vertex="1">
          <mxGeometry x="-72" y="-375" width="64" height="51" as="geometry" />
        </mxCell>
        <mxCell id="NgbMezOWZ3UJuck3Fulb-17" value="" style="endArrow=none;html=1;rounded=0;exitX=0.701;exitY=1;exitDx=0;exitDy=0;exitPerimeter=0;" parent="1" source="NgbMezOWZ3UJuck3Fulb-1" target="NgbMezOWZ3UJuck3Fulb-16" edge="1">
          <mxGeometry width="50" height="50" relative="1" as="geometry">
            <mxPoint x="121" y="-383" as="sourcePoint" />
            <mxPoint x="103" y="-344" as="targetPoint" />
          </mxGeometry>
        </mxCell>
        <mxCell id="NgbMezOWZ3UJuck3Fulb-18" value="" style="ellipse;whiteSpace=wrap;html=1;fillColor=none;" parent="1" vertex="1">
          <mxGeometry x="-81" y="-380.5" width="82" height="62" as="geometry" />
        </mxCell>
        <mxCell id="f6chiiNu9XqQvIiRHG3u-1" value="Employee" style="rounded=0;whiteSpace=wrap;html=1;" parent="1" vertex="1">
          <mxGeometry x="182" y="-728" width="117" height="57" as="geometry" />
        </mxCell>
        <mxCell id="f6chiiNu9XqQvIiRHG3u-2" value="birthday" style="ellipse;whiteSpace=wrap;html=1;" parent="1" vertex="1">
          <mxGeometry x="72" y="-699" width="64" height="51" as="geometry" />
        </mxCell>
        <mxCell id="f6chiiNu9XqQvIiRHG3u-3" value="&lt;u&gt;&lt;b&gt;Emp ID&lt;/b&gt;&lt;/u&gt;" style="ellipse;whiteSpace=wrap;html=1;" parent="1" vertex="1">
          <mxGeometry x="150" y="-823" width="64" height="51" as="geometry" />
        </mxCell>
        <mxCell id="f6chiiNu9XqQvIiRHG3u-4" value="Emp_Name" style="ellipse;whiteSpace=wrap;html=1;" parent="1" vertex="1">
          <mxGeometry x="72" y="-778" width="72" height="54" as="geometry" />
        </mxCell>
        <mxCell id="f6chiiNu9XqQvIiRHG3u-5" value="day" style="ellipse;whiteSpace=wrap;html=1;" parent="1" vertex="1">
          <mxGeometry x="-34" y="-744" width="55" height="41" as="geometry" />
        </mxCell>
        <mxCell id="f6chiiNu9XqQvIiRHG3u-6" value="month" style="ellipse;whiteSpace=wrap;html=1;" parent="1" vertex="1">
          <mxGeometry x="-28" y="-685" width="58" height="42" as="geometry" />
        </mxCell>
        <mxCell id="f6chiiNu9XqQvIiRHG3u-7" value="" style="endArrow=none;html=1;rounded=0;exitX=1;exitY=0;exitDx=0;exitDy=0;entryX=0;entryY=0.5;entryDx=0;entryDy=0;" parent="1" source="f6chiiNu9XqQvIiRHG3u-6" target="f6chiiNu9XqQvIiRHG3u-2" edge="1">
          <mxGeometry width="50" height="50" relative="1" as="geometry">
            <mxPoint x="51" y="-589" as="sourcePoint" />
            <mxPoint x="82" y="-622" as="targetPoint" />
          </mxGeometry>
        </mxCell>
        <mxCell id="f6chiiNu9XqQvIiRHG3u-8" value="" style="endArrow=none;html=1;rounded=0;exitX=1;exitY=0.5;exitDx=0;exitDy=0;entryX=0;entryY=0;entryDx=0;entryDy=0;" parent="1" source="f6chiiNu9XqQvIiRHG3u-5" target="f6chiiNu9XqQvIiRHG3u-2" edge="1">
          <mxGeometry width="50" height="50" relative="1" as="geometry">
            <mxPoint x="33" y="-635" as="sourcePoint" />
            <mxPoint x="83" y="-685" as="targetPoint" />
          </mxGeometry>
        </mxCell>
        <mxCell id="f6chiiNu9XqQvIiRHG3u-9" value="" style="endArrow=none;html=1;rounded=0;exitX=0;exitY=0.5;exitDx=0;exitDy=0;" parent="1" source="f6chiiNu9XqQvIiRHG3u-1" target="f6chiiNu9XqQvIiRHG3u-2" edge="1">
          <mxGeometry width="50" height="50" relative="1" as="geometry">
            <mxPoint x="633" y="-428" as="sourcePoint" />
            <mxPoint x="135" y="-653" as="targetPoint" />
          </mxGeometry>
        </mxCell>
        <mxCell id="f6chiiNu9XqQvIiRHG3u-10" value="" style="endArrow=none;html=1;rounded=0;entryX=0.5;entryY=1;entryDx=0;entryDy=0;exitX=0.5;exitY=0;exitDx=0;exitDy=0;" parent="1" source="f6chiiNu9XqQvIiRHG3u-1" target="f6chiiNu9XqQvIiRHG3u-3" edge="1">
          <mxGeometry width="50" height="50" relative="1" as="geometry">
            <mxPoint x="633" y="-428" as="sourcePoint" />
            <mxPoint x="683" y="-478" as="targetPoint" />
          </mxGeometry>
        </mxCell>
        <mxCell id="f6chiiNu9XqQvIiRHG3u-11" value="" style="endArrow=none;html=1;rounded=0;entryX=1;entryY=0.5;entryDx=0;entryDy=0;exitX=0;exitY=0;exitDx=0;exitDy=0;" parent="1" source="f6chiiNu9XqQvIiRHG3u-1" target="f6chiiNu9XqQvIiRHG3u-4" edge="1">
          <mxGeometry width="50" height="50" relative="1" as="geometry">
            <mxPoint x="643" y="-418" as="sourcePoint" />
            <mxPoint x="693" y="-468" as="targetPoint" />
          </mxGeometry>
        </mxCell>
        <mxCell id="f6chiiNu9XqQvIiRHG3u-12" value="address" style="ellipse;whiteSpace=wrap;html=1;" parent="1" vertex="1">
          <mxGeometry x="235" y="-829" width="64" height="51" as="geometry" />
        </mxCell>
        <mxCell id="f6chiiNu9XqQvIiRHG3u-16" value="year" style="ellipse;whiteSpace=wrap;html=1;" parent="1" vertex="1">
          <mxGeometry x="21" y="-645" width="58" height="42" as="geometry" />
        </mxCell>
        <mxCell id="f6chiiNu9XqQvIiRHG3u-17" value="" style="endArrow=none;html=1;rounded=0;exitX=1;exitY=0;exitDx=0;exitDy=0;entryX=0;entryY=1;entryDx=0;entryDy=0;" parent="1" source="f6chiiNu9XqQvIiRHG3u-16" target="f6chiiNu9XqQvIiRHG3u-2" edge="1">
          <mxGeometry width="50" height="50" relative="1" as="geometry">
            <mxPoint x="93" y="-563.5" as="sourcePoint" />
            <mxPoint x="119" y="-659" as="targetPoint" />
          </mxGeometry>
        </mxCell>
        <mxCell id="f6chiiNu9XqQvIiRHG3u-18" value="gender" style="ellipse;whiteSpace=wrap;html=1;" parent="1" vertex="1">
          <mxGeometry x="316" y="-823" width="64" height="51" as="geometry" />
        </mxCell>
        <mxCell id="f6chiiNu9XqQvIiRHG3u-19" value="position" style="ellipse;whiteSpace=wrap;html=1;" parent="1" vertex="1">
          <mxGeometry x="359" y="-762" width="64" height="51" as="geometry" />
        </mxCell>
        <mxCell id="f6chiiNu9XqQvIiRHG3u-20" value="" style="endArrow=none;html=1;rounded=0;entryX=1;entryY=0.25;entryDx=0;entryDy=0;exitX=0;exitY=0.5;exitDx=0;exitDy=0;" parent="1" source="f6chiiNu9XqQvIiRHG3u-19" target="f6chiiNu9XqQvIiRHG3u-1" edge="1">
          <mxGeometry width="50" height="50" relative="1" as="geometry">
            <mxPoint x="251" y="-718" as="sourcePoint" />
            <mxPoint x="192" y="-762" as="targetPoint" />
          </mxGeometry>
        </mxCell>
        <mxCell id="f6chiiNu9XqQvIiRHG3u-21" value="" style="endArrow=none;html=1;rounded=0;exitX=0;exitY=1;exitDx=0;exitDy=0;" parent="1" source="f6chiiNu9XqQvIiRHG3u-18" edge="1">
          <mxGeometry width="50" height="50" relative="1" as="geometry">
            <mxPoint x="261" y="-708" as="sourcePoint" />
            <mxPoint x="276" y="-730" as="targetPoint" />
          </mxGeometry>
        </mxCell>
        <mxCell id="f6chiiNu9XqQvIiRHG3u-22" value="" style="endArrow=none;html=1;rounded=0;entryX=0.589;entryY=0.002;entryDx=0;entryDy=0;exitX=0.5;exitY=1;exitDx=0;exitDy=0;entryPerimeter=0;" parent="1" source="f6chiiNu9XqQvIiRHG3u-12" target="f6chiiNu9XqQvIiRHG3u-1" edge="1">
          <mxGeometry width="50" height="50" relative="1" as="geometry">
            <mxPoint x="271" y="-698" as="sourcePoint" />
            <mxPoint x="212" y="-742" as="targetPoint" />
          </mxGeometry>
        </mxCell>
        <mxCell id="f6chiiNu9XqQvIiRHG3u-23" value="qualification" style="ellipse;whiteSpace=wrap;html=1;" parent="1" vertex="1">
          <mxGeometry x="419" y="-811" width="84" height="49" as="geometry" />
        </mxCell>
        <mxCell id="f6chiiNu9XqQvIiRHG3u-24" value="" style="ellipse;whiteSpace=wrap;html=1;fillColor=none;" parent="1" vertex="1">
          <mxGeometry x="408" y="-817" width="106" height="61" as="geometry" />
        </mxCell>
        <mxCell id="f6chiiNu9XqQvIiRHG3u-25" value="" style="endArrow=none;html=1;rounded=0;entryX=1;entryY=0;entryDx=0;entryDy=0;exitX=0;exitY=0.5;exitDx=0;exitDy=0;" parent="1" source="f6chiiNu9XqQvIiRHG3u-24" target="f6chiiNu9XqQvIiRHG3u-1" edge="1">
          <mxGeometry width="50" height="50" relative="1" as="geometry">
            <mxPoint x="357" y="-724" as="sourcePoint" />
            <mxPoint x="309" y="-704" as="targetPoint" />
          </mxGeometry>
        </mxCell>
        <mxCell id="f6chiiNu9XqQvIiRHG3u-28" value="aircraft" style="rounded=0;whiteSpace=wrap;html=1;" parent="1" vertex="1">
          <mxGeometry x="329" y="-388" width="117" height="57" as="geometry" />
        </mxCell>
        <mxCell id="f6chiiNu9XqQvIiRHG3u-30" value="&lt;u&gt;&lt;b&gt;ID&lt;/b&gt;&lt;/u&gt;" style="ellipse;whiteSpace=wrap;html=1;" parent="1" vertex="1">
          <mxGeometry x="439" y="-310" width="64" height="51" as="geometry" />
        </mxCell>
        <mxCell id="f6chiiNu9XqQvIiRHG3u-35" value="model" style="ellipse;whiteSpace=wrap;html=1;" parent="1" vertex="1">
          <mxGeometry x="295" y="-310" width="64" height="51" as="geometry" />
        </mxCell>
        <mxCell id="f6chiiNu9XqQvIiRHG3u-37" value="capacity" style="ellipse;whiteSpace=wrap;html=1;" parent="1" vertex="1">
          <mxGeometry x="365" y="-308" width="64" height="51" as="geometry" />
        </mxCell>
        <mxCell id="f6chiiNu9XqQvIiRHG3u-41" value="" style="endArrow=none;html=1;rounded=0;exitX=1;exitY=0.5;exitDx=0;exitDy=0;entryX=0.359;entryY=0.057;entryDx=0;entryDy=0;entryPerimeter=0;" parent="1" source="f6chiiNu9XqQvIiRHG3u-28" target="f6chiiNu9XqQvIiRHG3u-30" edge="1">
          <mxGeometry width="50" height="50" relative="1" as="geometry">
            <mxPoint x="53" y="-370" as="sourcePoint" />
            <mxPoint x="75" y="-329" as="targetPoint" />
          </mxGeometry>
        </mxCell>
        <mxCell id="f6chiiNu9XqQvIiRHG3u-42" value="" style="endArrow=none;html=1;rounded=0;entryX=0.5;entryY=0;entryDx=0;entryDy=0;" parent="1" source="f6chiiNu9XqQvIiRHG3u-28" target="f6chiiNu9XqQvIiRHG3u-37" edge="1">
          <mxGeometry width="50" height="50" relative="1" as="geometry">
            <mxPoint x="417" y="-331" as="sourcePoint" />
            <mxPoint x="85" y="-319" as="targetPoint" />
          </mxGeometry>
        </mxCell>
        <mxCell id="f6chiiNu9XqQvIiRHG3u-43" value="" style="endArrow=none;html=1;rounded=0;exitX=0.5;exitY=0;exitDx=0;exitDy=0;entryX=0.25;entryY=1;entryDx=0;entryDy=0;" parent="1" source="f6chiiNu9XqQvIiRHG3u-35" target="f6chiiNu9XqQvIiRHG3u-28" edge="1">
          <mxGeometry width="50" height="50" relative="1" as="geometry">
            <mxPoint x="73" y="-350" as="sourcePoint" />
            <mxPoint x="95" y="-309" as="targetPoint" />
          </mxGeometry>
        </mxCell>
        <mxCell id="xefb4bJ1yzp3ZhWPZpPK-1" value="route" style="rounded=0;whiteSpace=wrap;html=1;" vertex="1" parent="1">
          <mxGeometry x="797" y="-656.5" width="117" height="57" as="geometry" />
        </mxCell>
        <mxCell id="xefb4bJ1yzp3ZhWPZpPK-2" value="&lt;u&gt;&lt;b&gt;ID&lt;/b&gt;&lt;/u&gt;" style="ellipse;whiteSpace=wrap;html=1;" vertex="1" parent="1">
          <mxGeometry x="944" y="-623.5" width="64" height="51" as="geometry" />
        </mxCell>
        <mxCell id="xefb4bJ1yzp3ZhWPZpPK-3" value="distance" style="ellipse;whiteSpace=wrap;html=1;" vertex="1" parent="1">
          <mxGeometry x="820" y="-572.5" width="64" height="51" as="geometry" />
        </mxCell>
        <mxCell id="xefb4bJ1yzp3ZhWPZpPK-4" value="origin" style="ellipse;whiteSpace=wrap;html=1;" vertex="1" parent="1">
          <mxGeometry x="895" y="-579.5" width="64" height="51" as="geometry" />
        </mxCell>
        <mxCell id="xefb4bJ1yzp3ZhWPZpPK-5" value="" style="endArrow=none;html=1;rounded=0;exitX=1;exitY=0.5;exitDx=0;exitDy=0;entryX=0.047;entryY=0.353;entryDx=0;entryDy=0;entryPerimeter=0;" edge="1" source="xefb4bJ1yzp3ZhWPZpPK-1" target="xefb4bJ1yzp3ZhWPZpPK-2" parent="1">
          <mxGeometry width="50" height="50" relative="1" as="geometry">
            <mxPoint x="523" y="-636.5" as="sourcePoint" />
            <mxPoint x="545" y="-595.5" as="targetPoint" />
          </mxGeometry>
        </mxCell>
        <mxCell id="xefb4bJ1yzp3ZhWPZpPK-6" value="" style="endArrow=none;html=1;rounded=0;exitX=0.75;exitY=1;exitDx=0;exitDy=0;entryX=0;entryY=0;entryDx=0;entryDy=0;" edge="1" source="xefb4bJ1yzp3ZhWPZpPK-1" target="xefb4bJ1yzp3ZhWPZpPK-4" parent="1">
          <mxGeometry width="50" height="50" relative="1" as="geometry">
            <mxPoint x="533" y="-626.5" as="sourcePoint" />
            <mxPoint x="555" y="-585.5" as="targetPoint" />
          </mxGeometry>
        </mxCell>
        <mxCell id="xefb4bJ1yzp3ZhWPZpPK-7" value="" style="endArrow=none;html=1;rounded=0;exitX=0.5;exitY=0;exitDx=0;exitDy=0;entryX=0.387;entryY=1.044;entryDx=0;entryDy=0;entryPerimeter=0;" edge="1" source="xefb4bJ1yzp3ZhWPZpPK-3" target="xefb4bJ1yzp3ZhWPZpPK-1" parent="1">
          <mxGeometry width="50" height="50" relative="1" as="geometry">
            <mxPoint x="543" y="-616.5" as="sourcePoint" />
            <mxPoint x="565" y="-575.5" as="targetPoint" />
          </mxGeometry>
        </mxCell>
        <mxCell id="xefb4bJ1yzp3ZhWPZpPK-8" value="classification" style="ellipse;whiteSpace=wrap;html=1;" vertex="1" parent="1">
          <mxGeometry x="861" y="-731.5" width="79" height="49" as="geometry" />
        </mxCell>
        <mxCell id="xefb4bJ1yzp3ZhWPZpPK-9" value="destination" style="ellipse;whiteSpace=wrap;html=1;" vertex="1" parent="1">
          <mxGeometry x="944" y="-680.5" width="64" height="51" as="geometry" />
        </mxCell>
        <mxCell id="xefb4bJ1yzp3ZhWPZpPK-11" value="" style="endArrow=none;html=1;rounded=0;exitX=1;exitY=0.25;exitDx=0;exitDy=0;entryX=0;entryY=0.5;entryDx=0;entryDy=0;" edge="1" parent="1" source="xefb4bJ1yzp3ZhWPZpPK-1" target="xefb4bJ1yzp3ZhWPZpPK-9">
          <mxGeometry width="50" height="50" relative="1" as="geometry">
            <mxPoint x="926" y="-615.5" as="sourcePoint" />
            <mxPoint x="957" y="-595.5" as="targetPoint" />
          </mxGeometry>
        </mxCell>
        <mxCell id="xefb4bJ1yzp3ZhWPZpPK-12" value="" style="endArrow=none;html=1;rounded=0;exitX=0.5;exitY=1;exitDx=0;exitDy=0;entryX=0.75;entryY=0;entryDx=0;entryDy=0;" edge="1" parent="1" source="xefb4bJ1yzp3ZhWPZpPK-8" target="xefb4bJ1yzp3ZhWPZpPK-1">
          <mxGeometry width="50" height="50" relative="1" as="geometry">
            <mxPoint x="936" y="-605.5" as="sourcePoint" />
            <mxPoint x="967" y="-585.5" as="targetPoint" />
          </mxGeometry>
        </mxCell>
        <mxCell id="xefb4bJ1yzp3ZhWPZpPK-13" value="crew" style="rounded=0;whiteSpace=wrap;html=1;" vertex="1" parent="1">
          <mxGeometry x="687.5" y="-303.5" width="117" height="57" as="geometry" />
        </mxCell>
        <mxCell id="xefb4bJ1yzp3ZhWPZpPK-14" value="major pilot" style="ellipse;whiteSpace=wrap;html=1;" vertex="1" parent="1">
          <mxGeometry x="839" y="-252.51" width="75" height="51" as="geometry" />
        </mxCell>
        <mxCell id="xefb4bJ1yzp3ZhWPZpPK-15" value="hostess&amp;nbsp;" style="ellipse;whiteSpace=wrap;html=1;" vertex="1" parent="1">
          <mxGeometry x="657.5" y="-202.01" width="64" height="51" as="geometry" />
        </mxCell>
        <mxCell id="xefb4bJ1yzp3ZhWPZpPK-16" value="assistant pilot" style="ellipse;whiteSpace=wrap;html=1;" vertex="1" parent="1">
          <mxGeometry x="756" y="-201.51" width="101" height="50" as="geometry" />
        </mxCell>
        <mxCell id="xefb4bJ1yzp3ZhWPZpPK-17" value="" style="endArrow=none;html=1;rounded=0;exitX=1;exitY=0.697;exitDx=0;exitDy=0;entryX=0;entryY=0.5;entryDx=0;entryDy=0;exitPerimeter=0;" edge="1" source="xefb4bJ1yzp3ZhWPZpPK-22" target="xefb4bJ1yzp3ZhWPZpPK-14" parent="1">
          <mxGeometry width="50" height="50" relative="1" as="geometry">
            <mxPoint x="411.5" y="-285.5" as="sourcePoint" />
            <mxPoint x="433.5" y="-244.5" as="targetPoint" />
          </mxGeometry>
        </mxCell>
        <mxCell id="xefb4bJ1yzp3ZhWPZpPK-18" value="" style="endArrow=none;html=1;rounded=0;exitX=0.75;exitY=1;exitDx=0;exitDy=0;entryX=0.5;entryY=0;entryDx=0;entryDy=0;" edge="1" source="xefb4bJ1yzp3ZhWPZpPK-22" target="xefb4bJ1yzp3ZhWPZpPK-16" parent="1">
          <mxGeometry width="50" height="50" relative="1" as="geometry">
            <mxPoint x="421.5" y="-275.5" as="sourcePoint" />
            <mxPoint x="443.5" y="-234.5" as="targetPoint" />
            <Array as="points">
              <mxPoint x="807" y="-202" />
            </Array>
          </mxGeometry>
        </mxCell>
        <mxCell id="xefb4bJ1yzp3ZhWPZpPK-19" value="" style="endArrow=none;html=1;rounded=0;exitX=0.5;exitY=0;exitDx=0;exitDy=0;entryX=0.25;entryY=1;entryDx=0;entryDy=0;" edge="1" source="xefb4bJ1yzp3ZhWPZpPK-15" target="xefb4bJ1yzp3ZhWPZpPK-22" parent="1">
          <mxGeometry width="50" height="50" relative="1" as="geometry">
            <mxPoint x="419.5" y="-247.51" as="sourcePoint" />
            <mxPoint x="720.779" y="-226.00199999999995" as="targetPoint" />
          </mxGeometry>
        </mxCell>
        <mxCell id="xefb4bJ1yzp3ZhWPZpPK-22" value="" style="rounded=0;whiteSpace=wrap;html=1;fillColor=none;" vertex="1" parent="1">
          <mxGeometry x="682" y="-308" width="128" height="66" as="geometry" />
        </mxCell>
        <mxCell id="xefb4bJ1yzp3ZhWPZpPK-23" value="transaction" style="rounded=0;whiteSpace=wrap;html=1;" vertex="1" parent="1">
          <mxGeometry x="30" y="-226" width="117" height="57" as="geometry" />
        </mxCell>
        <mxCell id="xefb4bJ1yzp3ZhWPZpPK-30" value="date" style="ellipse;whiteSpace=wrap;html=1;" vertex="1" parent="1">
          <mxGeometry x="43" y="-157" width="64" height="51" as="geometry" />
        </mxCell>
        <mxCell id="xefb4bJ1yzp3ZhWPZpPK-31" value="received money" style="ellipse;whiteSpace=wrap;html=1;" vertex="1" parent="1">
          <mxGeometry x="182" y="-199" width="64" height="51" as="geometry" />
        </mxCell>
        <mxCell id="xefb4bJ1yzp3ZhWPZpPK-32" value="paid money" style="ellipse;whiteSpace=wrap;html=1;" vertex="1" parent="1">
          <mxGeometry x="122" y="-157" width="64" height="51" as="geometry" />
        </mxCell>
        <mxCell id="xefb4bJ1yzp3ZhWPZpPK-33" value="&lt;u&gt;&lt;b&gt;ID&lt;/b&gt;&lt;/u&gt;" style="ellipse;whiteSpace=wrap;html=1;" vertex="1" parent="1">
          <mxGeometry x="-34" y="-174" width="64" height="51" as="geometry" />
        </mxCell>
        <mxCell id="xefb4bJ1yzp3ZhWPZpPK-34" value="" style="endArrow=none;html=1;rounded=0;exitX=1;exitY=0.5;exitDx=0;exitDy=0;entryX=0;entryY=0;entryDx=0;entryDy=0;" edge="1" parent="1" source="xefb4bJ1yzp3ZhWPZpPK-23" target="xefb4bJ1yzp3ZhWPZpPK-31">
          <mxGeometry width="50" height="50" relative="1" as="geometry">
            <mxPoint x="-103" y="-360" as="sourcePoint" />
            <mxPoint x="-108" y="-310" as="targetPoint" />
          </mxGeometry>
        </mxCell>
        <mxCell id="xefb4bJ1yzp3ZhWPZpPK-35" value="" style="endArrow=none;html=1;rounded=0;exitX=0;exitY=0;exitDx=0;exitDy=0;entryX=0.75;entryY=1;entryDx=0;entryDy=0;" edge="1" parent="1" source="xefb4bJ1yzp3ZhWPZpPK-32" target="xefb4bJ1yzp3ZhWPZpPK-23">
          <mxGeometry width="50" height="50" relative="1" as="geometry">
            <mxPoint x="-93" y="-350" as="sourcePoint" />
            <mxPoint x="-98" y="-300" as="targetPoint" />
          </mxGeometry>
        </mxCell>
        <mxCell id="xefb4bJ1yzp3ZhWPZpPK-36" value="" style="endArrow=none;html=1;rounded=0;exitX=0.359;exitY=1;exitDx=0;exitDy=0;entryX=0.5;entryY=0;entryDx=0;entryDy=0;exitPerimeter=0;" edge="1" parent="1" source="xefb4bJ1yzp3ZhWPZpPK-23" target="xefb4bJ1yzp3ZhWPZpPK-30">
          <mxGeometry width="50" height="50" relative="1" as="geometry">
            <mxPoint x="-83" y="-340" as="sourcePoint" />
            <mxPoint x="-88" y="-290" as="targetPoint" />
          </mxGeometry>
        </mxCell>
        <mxCell id="xefb4bJ1yzp3ZhWPZpPK-38" value="" style="endArrow=none;dashed=1;html=1;rounded=0;exitX=0.86;exitY=0.676;exitDx=0;exitDy=0;exitPerimeter=0;" edge="1" parent="1">
          <mxGeometry width="50" height="50" relative="1" as="geometry">
            <mxPoint x="909.75" y="-218.0340000000001" as="sourcePoint" />
            <mxPoint x="843.25" y="-218.01" as="targetPoint" />
            <Array as="points">
              <mxPoint x="886.25" y="-218" />
            </Array>
          </mxGeometry>
        </mxCell>
        <mxCell id="xefb4bJ1yzp3ZhWPZpPK-37" value="" style="endArrow=none;html=1;rounded=0;exitX=0;exitY=0.5;exitDx=0;exitDy=0;entryX=0.5;entryY=0;entryDx=0;entryDy=0;" edge="1" parent="1" source="xefb4bJ1yzp3ZhWPZpPK-23" target="xefb4bJ1yzp3ZhWPZpPK-33">
          <mxGeometry width="50" height="50" relative="1" as="geometry">
            <mxPoint x="-73" y="-330" as="sourcePoint" />
            <mxPoint x="-78" y="-280" as="targetPoint" />
          </mxGeometry>
        </mxCell>
        <mxCell id="xefb4bJ1yzp3ZhWPZpPK-39" value="work" style="rhombus;whiteSpace=wrap;html=1;" vertex="1" parent="1">
          <mxGeometry x="79" y="-592" width="80" height="75" as="geometry" />
        </mxCell>
        <mxCell id="xefb4bJ1yzp3ZhWPZpPK-40" value="" style="endArrow=none;html=1;rounded=0;entryX=0.5;entryY=1;entryDx=0;entryDy=0;" edge="1" parent="1" target="xefb4bJ1yzp3ZhWPZpPK-39">
          <mxGeometry width="50" height="50" relative="1" as="geometry">
            <mxPoint x="27" y="-472" as="sourcePoint" />
            <mxPoint x="77" y="-522" as="targetPoint" />
          </mxGeometry>
        </mxCell>
        <mxCell id="xefb4bJ1yzp3ZhWPZpPK-41" value="" style="endArrow=none;html=1;rounded=0;exitX=0.5;exitY=0;exitDx=0;exitDy=0;" edge="1" parent="1" source="xefb4bJ1yzp3ZhWPZpPK-39">
          <mxGeometry width="50" height="50" relative="1" as="geometry">
            <mxPoint x="184" y="-620" as="sourcePoint" />
            <mxPoint x="234" y="-670" as="targetPoint" />
          </mxGeometry>
        </mxCell>
        <mxCell id="xefb4bJ1yzp3ZhWPZpPK-43" value="own" style="rhombus;whiteSpace=wrap;html=1;" vertex="1" parent="1">
          <mxGeometry x="164" y="-473.75" width="80" height="75" as="geometry" />
        </mxCell>
        <mxCell id="xefb4bJ1yzp3ZhWPZpPK-44" value="" style="endArrow=none;html=1;rounded=0;entryX=0;entryY=0.5;entryDx=0;entryDy=0;" edge="1" parent="1" target="xefb4bJ1yzp3ZhWPZpPK-43">
          <mxGeometry width="50" height="50" relative="1" as="geometry">
            <mxPoint x="24" y="-433" as="sourcePoint" />
            <mxPoint x="74" y="-483" as="targetPoint" />
          </mxGeometry>
        </mxCell>
        <mxCell id="xefb4bJ1yzp3ZhWPZpPK-45" value="" style="endArrow=none;html=1;rounded=0;exitX=1;exitY=0.5;exitDx=0;exitDy=0;" edge="1" parent="1" source="xefb4bJ1yzp3ZhWPZpPK-43">
          <mxGeometry width="50" height="50" relative="1" as="geometry">
            <mxPoint x="277" y="-316" as="sourcePoint" />
            <mxPoint x="327" y="-366" as="targetPoint" />
          </mxGeometry>
        </mxCell>
        <mxCell id="xefb4bJ1yzp3ZhWPZpPK-46" value="assign" style="rhombus;whiteSpace=wrap;html=1;" vertex="1" parent="1">
          <mxGeometry x="542.5" y="-602" width="80" height="75" as="geometry" />
        </mxCell>
        <mxCell id="xefb4bJ1yzp3ZhWPZpPK-47" value="" style="endArrow=none;html=1;rounded=0;exitX=0.5;exitY=0;exitDx=0;exitDy=0;entryX=0;entryY=0.5;entryDx=0;entryDy=0;" edge="1" parent="1" source="f6chiiNu9XqQvIiRHG3u-28" target="xefb4bJ1yzp3ZhWPZpPK-46">
          <mxGeometry width="50" height="50" relative="1" as="geometry">
            <mxPoint x="543" y="-529" as="sourcePoint" />
            <mxPoint x="593" y="-579" as="targetPoint" />
          </mxGeometry>
        </mxCell>
        <mxCell id="xefb4bJ1yzp3ZhWPZpPK-48" value="" style="endArrow=none;html=1;rounded=0;exitX=1;exitY=0.5;exitDx=0;exitDy=0;entryX=0;entryY=0.5;entryDx=0;entryDy=0;" edge="1" parent="1" source="xefb4bJ1yzp3ZhWPZpPK-46" target="xefb4bJ1yzp3ZhWPZpPK-1">
          <mxGeometry width="50" height="50" relative="1" as="geometry">
            <mxPoint x="703.5" y="-539" as="sourcePoint" />
            <mxPoint x="753.5" y="-589" as="targetPoint" />
          </mxGeometry>
        </mxCell>
        <mxCell id="xefb4bJ1yzp3ZhWPZpPK-55" value="arrival date time" style="ellipse;whiteSpace=wrap;html=1;" vertex="1" parent="1">
          <mxGeometry x="610.5" y="-646" width="59" height="51" as="geometry" />
        </mxCell>
        <mxCell id="xefb4bJ1yzp3ZhWPZpPK-56" value="time spent in traveling" style="ellipse;whiteSpace=wrap;html=1;dashed=1;dashPattern=8 8;" vertex="1" parent="1">
          <mxGeometry x="441" y="-606" width="89" height="47" as="geometry" />
        </mxCell>
        <mxCell id="xefb4bJ1yzp3ZhWPZpPK-57" value="departure date time" style="ellipse;whiteSpace=wrap;html=1;" vertex="1" parent="1">
          <mxGeometry x="513.5" y="-662" width="64" height="51" as="geometry" />
        </mxCell>
        <mxCell id="xefb4bJ1yzp3ZhWPZpPK-60" value="number of passangerss" style="ellipse;whiteSpace=wrap;html=1;" vertex="1" parent="1">
          <mxGeometry x="622.5" y="-554" width="90" height="40" as="geometry" />
        </mxCell>
        <mxCell id="xefb4bJ1yzp3ZhWPZpPK-61" value="price per passanger" style="ellipse;whiteSpace=wrap;html=1;" vertex="1" parent="1">
          <mxGeometry x="540.5" y="-518" width="78" height="62" as="geometry" />
        </mxCell>
        <mxCell id="xefb4bJ1yzp3ZhWPZpPK-62" value="" style="endArrow=none;html=1;rounded=0;exitX=0.857;exitY=0.338;exitDx=0;exitDy=0;exitPerimeter=0;" edge="1" parent="1" source="xefb4bJ1yzp3ZhWPZpPK-46">
          <mxGeometry width="50" height="50" relative="1" as="geometry">
            <mxPoint x="570.5" y="-550" as="sourcePoint" />
            <mxPoint x="620.5" y="-600" as="targetPoint" />
          </mxGeometry>
        </mxCell>
        <mxCell id="xefb4bJ1yzp3ZhWPZpPK-63" value="" style="endArrow=none;html=1;rounded=0;exitX=1;exitY=1;exitDx=0;exitDy=0;" edge="1" parent="1" source="xefb4bJ1yzp3ZhWPZpPK-46">
          <mxGeometry width="50" height="50" relative="1" as="geometry">
            <mxPoint x="571.5" y="-489" as="sourcePoint" />
            <mxPoint x="621.5" y="-539" as="targetPoint" />
          </mxGeometry>
        </mxCell>
        <mxCell id="xefb4bJ1yzp3ZhWPZpPK-64" value="" style="endArrow=none;html=1;rounded=0;entryX=0;entryY=0;entryDx=0;entryDy=0;" edge="1" parent="1" target="xefb4bJ1yzp3ZhWPZpPK-46">
          <mxGeometry width="50" height="50" relative="1" as="geometry">
            <mxPoint x="528.5" y="-572" as="sourcePoint" />
            <mxPoint x="578.5" y="-622" as="targetPoint" />
          </mxGeometry>
        </mxCell>
        <mxCell id="xefb4bJ1yzp3ZhWPZpPK-65" value="" style="endArrow=none;html=1;rounded=0;exitX=0.357;exitY=0.087;exitDx=0;exitDy=0;exitPerimeter=0;" edge="1" parent="1" source="xefb4bJ1yzp3ZhWPZpPK-46">
          <mxGeometry width="50" height="50" relative="1" as="geometry">
            <mxPoint x="507.5" y="-563" as="sourcePoint" />
            <mxPoint x="557.5" y="-613" as="targetPoint" />
          </mxGeometry>
        </mxCell>
        <mxCell id="xefb4bJ1yzp3ZhWPZpPK-66" value="" style="endArrow=none;html=1;rounded=0;entryX=0;entryY=1;entryDx=0;entryDy=0;" edge="1" parent="1" target="xefb4bJ1yzp3ZhWPZpPK-46">
          <mxGeometry width="50" height="50" relative="1" as="geometry">
            <mxPoint x="558.5" y="-512" as="sourcePoint" />
            <mxPoint x="608.5" y="-562" as="targetPoint" />
          </mxGeometry>
        </mxCell>
        <mxCell id="xefb4bJ1yzp3ZhWPZpPK-68" value="has" style="rhombus;whiteSpace=wrap;html=1;" vertex="1" parent="1">
          <mxGeometry x="507.5" y="-398.75" width="80" height="75" as="geometry" />
        </mxCell>
        <mxCell id="xefb4bJ1yzp3ZhWPZpPK-69" value="" style="endArrow=none;html=1;rounded=0;entryX=0;entryY=0.5;entryDx=0;entryDy=0;" edge="1" parent="1" target="xefb4bJ1yzp3ZhWPZpPK-68">
          <mxGeometry width="50" height="50" relative="1" as="geometry">
            <mxPoint x="446" y="-373" as="sourcePoint" />
            <mxPoint x="496" y="-423" as="targetPoint" />
          </mxGeometry>
        </mxCell>
        <mxCell id="xefb4bJ1yzp3ZhWPZpPK-71" value="" style="endArrow=none;html=1;rounded=0;entryX=0;entryY=0.5;entryDx=0;entryDy=0;exitX=1;exitY=0.5;exitDx=0;exitDy=0;" edge="1" parent="1" source="xefb4bJ1yzp3ZhWPZpPK-72" target="xefb4bJ1yzp3ZhWPZpPK-22">
          <mxGeometry width="50" height="50" relative="1" as="geometry">
            <mxPoint x="561" y="-375.5" as="sourcePoint" />
            <mxPoint x="595" y="-411.5" as="targetPoint" />
          </mxGeometry>
        </mxCell>
        <mxCell id="xefb4bJ1yzp3ZhWPZpPK-72" value="" style="rhombus;whiteSpace=wrap;html=1;fillColor=none;" vertex="1" parent="1">
          <mxGeometry x="503" y="-404" width="89" height="85.5" as="geometry" />
        </mxCell>
        <mxCell id="xefb4bJ1yzp3ZhWPZpPK-73" value="make" style="rhombus;whiteSpace=wrap;html=1;" vertex="1" parent="1">
          <mxGeometry x="56" y="-352" width="80" height="75" as="geometry" />
        </mxCell>
        <mxCell id="xefb4bJ1yzp3ZhWPZpPK-74" value="" style="endArrow=none;html=1;rounded=0;entryX=1;entryY=1;entryDx=0;entryDy=0;exitX=0.5;exitY=0;exitDx=0;exitDy=0;" edge="1" parent="1" source="xefb4bJ1yzp3ZhWPZpPK-73" target="NgbMezOWZ3UJuck3Fulb-1">
          <mxGeometry width="50" height="50" relative="1" as="geometry">
            <mxPoint x="20" y="-335" as="sourcePoint" />
            <mxPoint x="70" y="-385" as="targetPoint" />
          </mxGeometry>
        </mxCell>
        <mxCell id="xefb4bJ1yzp3ZhWPZpPK-75" value="" style="endArrow=none;html=1;rounded=0;exitX=0.75;exitY=0;exitDx=0;exitDy=0;entryX=0.5;entryY=1;entryDx=0;entryDy=0;" edge="1" parent="1" source="xefb4bJ1yzp3ZhWPZpPK-23" target="xefb4bJ1yzp3ZhWPZpPK-73">
          <mxGeometry width="50" height="50" relative="1" as="geometry">
            <mxPoint x="429" y="-485" as="sourcePoint" />
            <mxPoint x="479" y="-535" as="targetPoint" />
          </mxGeometry>
        </mxCell>
        <mxCell id="xefb4bJ1yzp3ZhWPZpPK-77" value="" style="endArrow=none;html=1;rounded=0;entryX=0;entryY=0.5;entryDx=0;entryDy=0;exitX=1;exitY=0.5;exitDx=0;exitDy=0;" edge="1" parent="1">
          <mxGeometry width="50" height="50" relative="1" as="geometry">
            <mxPoint x="590" y="-359.5" as="sourcePoint" />
            <mxPoint x="680" y="-273.5" as="targetPoint" />
          </mxGeometry>
        </mxCell>
        <mxCell id="xefb4bJ1yzp3ZhWPZpPK-78" value="&lt;br&gt;M" style="text;html=1;align=center;verticalAlign=middle;resizable=0;points=[];autosize=1;strokeColor=none;fillColor=none;" vertex="1" parent="1">
          <mxGeometry x="299" y="-391" width="28" height="41" as="geometry" />
        </mxCell>
        <mxCell id="xefb4bJ1yzp3ZhWPZpPK-79" value="1" style="text;html=1;align=center;verticalAlign=middle;resizable=0;points=[];autosize=1;strokeColor=none;fillColor=none;" vertex="1" parent="1">
          <mxGeometry x="5" y="-411" width="25" height="26" as="geometry" />
        </mxCell>
        <mxCell id="xefb4bJ1yzp3ZhWPZpPK-80" value="&lt;br&gt;M" style="text;html=1;align=center;verticalAlign=middle;resizable=0;points=[];autosize=1;strokeColor=none;fillColor=none;" vertex="1" parent="1">
          <mxGeometry x="226.5" y="-686" width="28" height="41" as="geometry" />
        </mxCell>
        <mxCell id="xefb4bJ1yzp3ZhWPZpPK-81" value="&lt;br&gt;M" style="text;html=1;align=center;verticalAlign=middle;resizable=0;points=[];autosize=1;strokeColor=none;fillColor=none;" vertex="1" parent="1">
          <mxGeometry x="373.5" y="-429" width="28" height="41" as="geometry" />
        </mxCell>
        <mxCell id="xefb4bJ1yzp3ZhWPZpPK-82" value="&lt;br&gt;M" style="text;html=1;align=center;verticalAlign=middle;resizable=0;points=[];autosize=1;strokeColor=none;fillColor=none;" vertex="1" parent="1">
          <mxGeometry x="771" y="-662" width="28" height="41" as="geometry" />
        </mxCell>
        <mxCell id="xefb4bJ1yzp3ZhWPZpPK-83" value="&lt;br&gt;M" style="text;html=1;align=center;verticalAlign=middle;resizable=0;points=[];autosize=1;strokeColor=none;fillColor=none;" vertex="1" parent="1">
          <mxGeometry x="84" y="-263.5" width="28" height="41" as="geometry" />
        </mxCell>
        <mxCell id="xefb4bJ1yzp3ZhWPZpPK-84" value="1" style="text;html=1;align=center;verticalAlign=middle;resizable=0;points=[];autosize=1;strokeColor=none;fillColor=none;" vertex="1" parent="1">
          <mxGeometry x="21" y="-453" width="25" height="26" as="geometry" />
        </mxCell>
        <mxCell id="xefb4bJ1yzp3ZhWPZpPK-85" value="1" style="text;html=1;align=center;verticalAlign=middle;resizable=0;points=[];autosize=1;strokeColor=none;fillColor=none;" vertex="1" parent="1">
          <mxGeometry x="1016" y="-892" width="25" height="26" as="geometry" />
        </mxCell>
        <mxCell id="xefb4bJ1yzp3ZhWPZpPK-86" value="1" style="text;html=1;align=center;verticalAlign=middle;resizable=0;points=[];autosize=1;strokeColor=none;fillColor=none;" vertex="1" parent="1">
          <mxGeometry x="441" y="-395" width="25" height="26" as="geometry" />
        </mxCell>
        <mxCell id="xefb4bJ1yzp3ZhWPZpPK-87" value="1" style="text;html=1;align=center;verticalAlign=middle;resizable=0;points=[];autosize=1;strokeColor=none;fillColor=none;" vertex="1" parent="1">
          <mxGeometry x="657" y="-283" width="25" height="26" as="geometry" />
        </mxCell>
        <mxCell id="xefb4bJ1yzp3ZhWPZpPK-88" value="1" style="text;html=1;align=center;verticalAlign=middle;resizable=0;points=[];autosize=1;strokeColor=none;fillColor=none;" vertex="1" parent="1">
          <mxGeometry x="5" y="-497" width="25" height="26" as="geometry" />
        </mxCell>
        <mxCell id="xefb4bJ1yzp3ZhWPZpPK-90" value="" style="endArrow=none;html=1;rounded=0;exitX=0.5;exitY=0;exitDx=0;exitDy=0;" edge="1" parent="1">
          <mxGeometry width="50" height="50" relative="1" as="geometry">
            <mxPoint x="122" y="-589" as="sourcePoint" />
            <mxPoint x="237" y="-667" as="targetPoint" />
          </mxGeometry>
        </mxCell>
        <mxCell id="vCMTRI7VKcd1CFtKqr9b-1" value="" style="endArrow=none;html=1;rounded=0;exitX=1;exitY=0.5;exitDx=0;exitDy=0;" edge="1" parent="1">
          <mxGeometry width="50" height="50" relative="1" as="geometry">
            <mxPoint x="244" y="-433" as="sourcePoint" />
            <mxPoint x="327" y="-363" as="targetPoint" />
          </mxGeometry>
        </mxCell>
        <mxCell id="vCMTRI7VKcd1CFtKqr9b-2" value="" style="endArrow=none;html=1;rounded=0;exitX=0.5;exitY=0;exitDx=0;exitDy=0;" edge="1" parent="1">
          <mxGeometry width="50" height="50" relative="1" as="geometry">
            <mxPoint x="393.5" y="-388" as="sourcePoint" />
            <mxPoint x="545" y="-562" as="targetPoint" />
          </mxGeometry>
        </mxCell>
        <mxCell id="vCMTRI7VKcd1CFtKqr9b-4" value="" style="endArrow=none;html=1;rounded=0;entryX=0.5;entryY=1;entryDx=0;entryDy=0;exitX=0.778;exitY=0;exitDx=0;exitDy=0;exitPerimeter=0;" edge="1" parent="1" source="xefb4bJ1yzp3ZhWPZpPK-23">
          <mxGeometry width="50" height="50" relative="1" as="geometry">
            <mxPoint x="120" y="-228" as="sourcePoint" />
            <mxPoint x="98" y="-279" as="targetPoint" />
          </mxGeometry>
        </mxCell>
        <mxCell id="vCMTRI7VKcd1CFtKqr9b-5" value="" style="ellipse;whiteSpace=wrap;html=1;fillColor=none;" vertex="1" parent="1">
          <mxGeometry x="654" y="-208.51" width="71" height="64" as="geometry" />
        </mxCell>
      </root>
    </mxGraphModel>
  </diagram>
</mxfile>
